%
M48
M72
T01C0.0236
T02C0.0400
T03C0.0472
T04C0.0512
T05C0.0590
T06C0.0670
T07C0.1260
%
T01
X8030Y5782
X12952Y6767
X18660Y6176
X19841Y9326
X24172Y8538
X25747Y9719
X27715Y10900
X27715Y12672
X25747Y12672
X24566Y13263
X25353Y16019
X27519Y16412
X27519Y17396
X27519Y18381
X31176Y16570
X31692Y16578
X33711Y16495
X36589Y15778
X36601Y14849
X38542Y12672
X37263Y11396
X35125Y11404
X34802Y9326
X33235Y7723
X28160Y8652
X27715Y6767
X19841Y12672
X17357Y15723
X14959Y15723
X12558Y16019
X12558Y17200
X12558Y18184
X10786Y18381
X10786Y17200
X10786Y16019
X8424Y16019
X8424Y17200
X8424Y18381
X8424Y19759
X6062Y18381
X9211Y21727
X8227Y22515
X10196Y22711
X12755Y22711
X15314Y23302
X16101Y22515
X17322Y21408
X18774Y21333
X20038Y22711
X20826Y22121
X21416Y22711
X22204Y22121
X22869Y21042
X24034Y21424
X23975Y23105
X23582Y24089
X22204Y24483
X20826Y24483
X19448Y24483
X19251Y26452
X21416Y26452
X23385Y26452
X25353Y26452
X25550Y24089
X27369Y21361
X30582Y21184
X31656Y18306
X35412Y19188
X36582Y19180
X38542Y17593
X38542Y21530
X37558Y23499
X40511Y25467
X42479Y23499
X21810Y18873
X21416Y17987
X19239Y19129
X16522Y18467
X13231Y19963
X13247Y20743
X14920Y20794
X15904Y24286
X12755Y24680
X10196Y24680
X7833Y24680
X6062Y23499
X7833Y26452
X10196Y26452
X12755Y26452
X16101Y26452
X6062Y9719
X38542Y8735
T02
X27885Y15022
X26885Y15022
X25885Y15022
X12987Y12956
X11211Y12959
X11211Y11959
X11211Y10959
X12987Y10956
X12987Y11956
X9389Y11956
X9389Y10956
X7645Y10963
X7645Y11963
X7645Y12963
X9389Y12956
X26385Y24763
X27385Y24763
X28385Y24763
T03
X40082Y17294
X42050Y15326
X43034Y15326
X43074Y12432
X42089Y12432
X40121Y10463
X42089Y8495
X43074Y8495
X39900Y5247
X38522Y5247
X36830Y5306
X35452Y5306
X33605Y5231
X32227Y5231
X30436Y5294
X29058Y5294
X16471Y5314
X15093Y5314
X5542Y15637
X5542Y17015
X42050Y19263
X43034Y19263
T04
X42050Y17294
X40082Y16310
X40082Y15326
X40121Y12432
X40121Y11448
X42089Y10463
X40121Y9479
X40121Y8495
X40082Y18278
X40082Y19263
T05
X22534Y6093
X6093Y20814
T06
X5093Y21814
X7093Y21814
X7093Y19814
X5093Y19814
X21534Y7093
X23534Y7093
X23534Y5093
X21534Y5093
T07
X5487Y5034
X5704Y25759
X42062Y26019
X42030Y5074
M30
