G75*
%MOIN*%
%OFA0B0*%
%FSLAX25Y25*%
%IPPOS*%
%LPD*%
%AMOC8*
5,1,8,0,0,1.08239X$1,22.5*
%
%ADD10C,0.13198*%
%ADD11R,0.08600X0.08600*%
%ADD12C,0.08600*%
%ADD13R,0.07600X0.02300*%
%ADD14R,0.06899X0.07687*%
%ADD15R,0.07687X0.06899*%
%ADD16R,0.08474X0.05324*%
%ADD17C,0.09200*%
%ADD18C,0.05324*%
%ADD19R,0.04931X0.04537*%
%ADD20R,0.04537X0.04931*%
%ADD21C,0.09450*%
%ADD22C,0.10650*%
%ADD23R,0.06899X0.07698*%
%ADD24R,0.07698X0.06899*%
%ADD25R,0.03800X0.01800*%
%ADD26R,0.01800X0.03800*%
%ADD27R,0.13400X0.13400*%
%ADD28R,0.08400X0.02800*%
%ADD29C,0.08000*%
%ADD30C,0.04362*%
D10*
X0054870Y0050343D03*
X0057036Y0257587D03*
X0420618Y0260185D03*
X0420303Y0050736D03*
D11*
X0385225Y0052469D03*
X0354516Y0053059D03*
X0322272Y0052311D03*
X0290579Y0052941D03*
X0150933Y0053138D03*
X0055422Y0170146D03*
D12*
X0055422Y0156366D03*
X0164713Y0053138D03*
X0304359Y0052941D03*
X0336051Y0052311D03*
X0368296Y0053059D03*
X0399004Y0052469D03*
D13*
X0336188Y0135008D03*
X0336188Y0137567D03*
X0336188Y0140126D03*
X0336188Y0142685D03*
X0320088Y0142685D03*
X0320088Y0140126D03*
X0320088Y0137567D03*
X0320088Y0135008D03*
X0314143Y0216189D03*
X0314143Y0218748D03*
X0314143Y0221307D03*
X0314143Y0223866D03*
X0330243Y0223866D03*
X0330243Y0221307D03*
X0330243Y0218748D03*
X0330243Y0216189D03*
D14*
X0323296Y0203099D03*
X0312272Y0203099D03*
X0295422Y0188217D03*
X0284398Y0188217D03*
X0284398Y0173729D03*
X0295422Y0173729D03*
X0295422Y0159831D03*
X0284398Y0159831D03*
X0258847Y0173414D03*
X0247823Y0173414D03*
X0321996Y0171878D03*
X0333020Y0171878D03*
X0337587Y0203059D03*
X0348610Y0203059D03*
X0274870Y0231406D03*
X0263847Y0231406D03*
X0317941Y0254792D03*
X0328965Y0254792D03*
X0187233Y0222114D03*
X0176209Y0222114D03*
X0122114Y0215028D03*
X0111091Y0215028D03*
X0110697Y0200264D03*
X0121721Y0200264D03*
X0214949Y0086366D03*
X0225973Y0086366D03*
X0174240Y0081485D03*
X0163217Y0081485D03*
X0325185Y0121642D03*
X0336209Y0121642D03*
X0346721Y0121603D03*
X0357744Y0121603D03*
X0357744Y0106681D03*
X0346721Y0106681D03*
D15*
X0208847Y0199359D03*
X0196406Y0199673D03*
X0196406Y0210697D03*
X0208847Y0210382D03*
X0185855Y0178079D03*
X0173729Y0178079D03*
X0161406Y0178217D03*
X0149792Y0178079D03*
X0149792Y0167055D03*
X0161406Y0167193D03*
X0173729Y0167055D03*
X0185855Y0167055D03*
X0140933Y0188610D03*
X0140933Y0199634D03*
D16*
X0293296Y0086524D03*
X0304319Y0086524D03*
X0321327Y0085776D03*
X0332351Y0085776D03*
D17*
X0401209Y0084949D03*
X0401209Y0094792D03*
X0420894Y0104634D03*
X0401209Y0114477D03*
X0401209Y0124319D03*
X0400815Y0153256D03*
X0400815Y0163099D03*
X0420500Y0172941D03*
X0400815Y0182784D03*
X0400815Y0192626D03*
D18*
X0420500Y0192626D03*
X0430343Y0192626D03*
X0400815Y0172941D03*
X0420500Y0153256D03*
X0430343Y0153256D03*
X0430736Y0124319D03*
X0420894Y0124319D03*
X0401209Y0104634D03*
X0420894Y0084949D03*
X0430736Y0084949D03*
D19*
X0093933Y0200792D03*
X0093933Y0207485D03*
D20*
X0202154Y0190067D03*
X0208847Y0190067D03*
X0305067Y0159831D03*
X0311760Y0159831D03*
X0346681Y0134595D03*
X0353374Y0134595D03*
X0323296Y0191878D03*
X0316603Y0191878D03*
X0270736Y0263414D03*
X0264044Y0263414D03*
D21*
X0060933Y0208138D03*
X0225343Y0060933D03*
D22*
X0235343Y0050933D03*
X0215343Y0050933D03*
X0215343Y0070933D03*
X0235343Y0070933D03*
X0070933Y0198138D03*
X0050933Y0198138D03*
X0050933Y0218138D03*
X0070933Y0218138D03*
D23*
X0169036Y0235776D03*
X0180233Y0235776D03*
X0180193Y0253177D03*
X0168996Y0253177D03*
X0317894Y0239319D03*
X0329091Y0239319D03*
X0343130Y0254752D03*
X0354327Y0254752D03*
X0333067Y0157469D03*
X0321870Y0157469D03*
X0233185Y0140579D03*
X0221988Y0140579D03*
X0165941Y0122626D03*
X0154744Y0122626D03*
D24*
X0200264Y0069485D03*
X0200264Y0058288D03*
X0254122Y0060847D03*
X0254122Y0072044D03*
X0352429Y0160847D03*
X0352429Y0172044D03*
X0221760Y0199233D03*
X0221760Y0210429D03*
X0141012Y0215059D03*
X0141012Y0226256D03*
D25*
X0166483Y0205028D03*
X0166483Y0203059D03*
X0166483Y0201091D03*
X0166483Y0199122D03*
X0166483Y0197154D03*
X0166483Y0195185D03*
X0166483Y0193217D03*
X0166483Y0191248D03*
X0185383Y0191248D03*
X0185383Y0193217D03*
X0185383Y0195185D03*
X0185383Y0197154D03*
X0185383Y0199122D03*
X0185383Y0201091D03*
X0185383Y0203059D03*
X0185383Y0205028D03*
X0251483Y0205028D03*
X0251483Y0203059D03*
X0251483Y0201091D03*
X0251483Y0199122D03*
X0251483Y0197154D03*
X0251483Y0195185D03*
X0251483Y0193217D03*
X0251483Y0191248D03*
X0270383Y0191248D03*
X0270383Y0193217D03*
X0270383Y0195185D03*
X0270383Y0197154D03*
X0270383Y0199122D03*
X0270383Y0201091D03*
X0270383Y0203059D03*
X0270383Y0205028D03*
D26*
X0267823Y0207588D03*
X0265855Y0207588D03*
X0263886Y0207588D03*
X0261918Y0207588D03*
X0259949Y0207588D03*
X0257981Y0207588D03*
X0256012Y0207588D03*
X0254044Y0207588D03*
X0254044Y0188688D03*
X0256012Y0188688D03*
X0257981Y0188688D03*
X0259949Y0188688D03*
X0261918Y0188688D03*
X0263886Y0188688D03*
X0265855Y0188688D03*
X0267823Y0188688D03*
X0182823Y0188688D03*
X0180855Y0188688D03*
X0178886Y0188688D03*
X0176918Y0188688D03*
X0174949Y0188688D03*
X0172981Y0188688D03*
X0171012Y0188688D03*
X0169044Y0188688D03*
X0169044Y0207588D03*
X0171012Y0207588D03*
X0172981Y0207588D03*
X0174949Y0207588D03*
X0176918Y0207588D03*
X0178886Y0207588D03*
X0180855Y0207588D03*
X0182823Y0207588D03*
D27*
X0175933Y0198138D03*
X0260933Y0198138D03*
D28*
X0234334Y0120284D03*
X0234334Y0115284D03*
X0234334Y0110284D03*
X0234334Y0105284D03*
X0214934Y0105284D03*
X0214934Y0110284D03*
X0214934Y0115284D03*
X0214934Y0120284D03*
X0174216Y0109614D03*
X0174216Y0104614D03*
X0174216Y0099614D03*
X0174216Y0094614D03*
X0154816Y0094614D03*
X0154816Y0099614D03*
X0154816Y0104614D03*
X0154816Y0109614D03*
D29*
X0129870Y0109555D03*
X0129870Y0119555D03*
X0112114Y0119595D03*
X0112114Y0109595D03*
X0093886Y0109555D03*
X0093886Y0119555D03*
X0076445Y0119634D03*
X0076445Y0109634D03*
X0076445Y0129634D03*
X0093886Y0129555D03*
X0112114Y0129595D03*
X0129870Y0129555D03*
X0258847Y0150225D03*
X0268847Y0150225D03*
X0278847Y0150225D03*
X0283847Y0247626D03*
X0273847Y0247626D03*
X0263847Y0247626D03*
D30*
X0255500Y0240894D03*
X0239752Y0231051D03*
X0235815Y0240894D03*
X0222036Y0244831D03*
X0208256Y0244831D03*
X0194477Y0244831D03*
X0200382Y0227114D03*
X0208256Y0221209D03*
X0214162Y0227114D03*
X0222036Y0221209D03*
X0228689Y0210422D03*
X0240343Y0214240D03*
X0273689Y0213610D03*
X0305815Y0211839D03*
X0316563Y0183059D03*
X0316918Y0165776D03*
X0311760Y0165697D03*
X0337114Y0164949D03*
X0365894Y0157784D03*
X0366012Y0148492D03*
X0385422Y0126721D03*
X0372626Y0113965D03*
X0351248Y0114044D03*
X0348020Y0093256D03*
X0332351Y0077233D03*
X0281603Y0086524D03*
X0257469Y0097193D03*
X0241721Y0085382D03*
X0277154Y0067666D03*
X0277154Y0109004D03*
X0277154Y0126721D03*
X0257469Y0126721D03*
X0245658Y0132626D03*
X0253532Y0160185D03*
X0275185Y0164122D03*
X0275185Y0173965D03*
X0275185Y0183807D03*
X0218099Y0188729D03*
X0214162Y0179870D03*
X0192390Y0191288D03*
X0165225Y0184673D03*
X0132311Y0199634D03*
X0132469Y0207429D03*
X0149201Y0207941D03*
X0173217Y0214083D03*
X0187744Y0213335D03*
X0161012Y0225146D03*
X0153138Y0233020D03*
X0159044Y0242862D03*
X0127548Y0246799D03*
X0101957Y0246799D03*
X0078335Y0246799D03*
X0060618Y0234988D03*
X0082272Y0225146D03*
X0092114Y0217272D03*
X0101957Y0227114D03*
X0127548Y0227114D03*
X0084240Y0197587D03*
X0084240Y0183807D03*
X0084240Y0171996D03*
X0084240Y0160185D03*
X0107862Y0160185D03*
X0107862Y0171996D03*
X0107862Y0183807D03*
X0125579Y0181839D03*
X0125579Y0171996D03*
X0125579Y0160185D03*
X0149595Y0157233D03*
X0173571Y0157233D03*
X0198414Y0126721D03*
X0198414Y0093256D03*
X0186603Y0061760D03*
X0129516Y0067666D03*
X0080303Y0057823D03*
X0060618Y0097193D03*
X0060618Y0183807D03*
X0078335Y0264516D03*
X0101957Y0264516D03*
X0127548Y0264516D03*
X0161012Y0264516D03*
X0192508Y0264516D03*
X0214162Y0264516D03*
X0233847Y0264516D03*
X0253532Y0264516D03*
X0354122Y0191878D03*
X0365815Y0191799D03*
X0385422Y0175933D03*
X0385422Y0215303D03*
X0375579Y0234988D03*
X0405107Y0254673D03*
X0424792Y0234988D03*
X0385422Y0087351D03*
M02*
