G75*
%MOIN*%
%OFA0B0*%
%FSLAX25Y25*%
%IPPOS*%
%LPD*%
%AMOC8*
5,1,8,0,0,1.08239X$1,22.5*
%
%ADD10R,0.08000X0.08000*%
%ADD11C,0.08000*%
%ADD12C,0.08600*%
%ADD13C,0.08850*%
%ADD14C,0.10050*%
%ADD15C,0.07400*%
%ADD16C,0.01600*%
%ADD17C,0.03762*%
%ADD18C,0.01200*%
D10*
X0150933Y0053138D03*
X0290579Y0052941D03*
X0322272Y0052311D03*
X0354516Y0053059D03*
X0385225Y0052469D03*
X0055422Y0170146D03*
D11*
X0055422Y0156366D03*
X0164713Y0053138D03*
X0304359Y0052941D03*
X0336051Y0052311D03*
X0368296Y0053059D03*
X0399004Y0052469D03*
D12*
X0401209Y0084949D03*
X0401209Y0094792D03*
X0420894Y0104634D03*
X0401209Y0114477D03*
X0401209Y0124319D03*
X0400815Y0153256D03*
X0400815Y0163099D03*
X0420500Y0172941D03*
X0400815Y0182784D03*
X0400815Y0192626D03*
D13*
X0225343Y0060933D03*
X0060933Y0208138D03*
D14*
X0050933Y0218138D03*
X0070933Y0218138D03*
X0070933Y0198138D03*
X0050933Y0198138D03*
X0215343Y0070933D03*
X0235343Y0070933D03*
X0235343Y0050933D03*
X0215343Y0050933D03*
D15*
X0129870Y0109555D03*
X0129870Y0119555D03*
X0112114Y0119595D03*
X0112114Y0109595D03*
X0093886Y0109555D03*
X0093886Y0119555D03*
X0076445Y0119634D03*
X0076445Y0109634D03*
X0076445Y0129634D03*
X0093886Y0129555D03*
X0112114Y0129595D03*
X0129870Y0129555D03*
X0258847Y0150225D03*
X0268847Y0150225D03*
X0278847Y0150225D03*
X0283847Y0247626D03*
X0273847Y0247626D03*
X0263847Y0247626D03*
D16*
X0043701Y0270719D02*
X0043238Y0040438D01*
X0432333Y0040438D01*
X0432306Y0080553D01*
X0431664Y0080287D01*
X0429809Y0080287D01*
X0428096Y0080997D01*
X0426784Y0082308D01*
X0426074Y0084022D01*
X0426074Y0085876D01*
X0426784Y0087590D01*
X0428096Y0088901D01*
X0429809Y0089611D01*
X0431664Y0089611D01*
X0432300Y0089348D01*
X0432279Y0119912D01*
X0431664Y0119657D01*
X0429809Y0119657D01*
X0428096Y0120367D01*
X0426784Y0121678D01*
X0426074Y0123392D01*
X0426074Y0125247D01*
X0426784Y0126960D01*
X0428096Y0128272D01*
X0429809Y0128981D01*
X0431664Y0128981D01*
X0432273Y0128729D01*
X0432260Y0149004D01*
X0431270Y0148594D01*
X0429415Y0148594D01*
X0427702Y0149304D01*
X0426390Y0150615D01*
X0425681Y0152329D01*
X0425681Y0154184D01*
X0426390Y0155897D01*
X0427702Y0157209D01*
X0429415Y0157918D01*
X0431270Y0157918D01*
X0432254Y0157511D01*
X0432233Y0188363D01*
X0431270Y0187964D01*
X0429415Y0187964D01*
X0427702Y0188674D01*
X0426390Y0189985D01*
X0425681Y0191699D01*
X0425681Y0193554D01*
X0426390Y0195267D01*
X0427702Y0196579D01*
X0429415Y0197288D01*
X0431270Y0197288D01*
X0432228Y0196892D01*
X0432178Y0270563D01*
X0043701Y0270719D01*
X0043700Y0269922D02*
X0432179Y0269922D01*
X0432180Y0268324D02*
X0423441Y0268324D01*
X0422329Y0268784D02*
X0418908Y0268784D01*
X0415747Y0267475D01*
X0413328Y0265056D01*
X0412019Y0261896D01*
X0412019Y0258475D01*
X0413328Y0255314D01*
X0415747Y0252895D01*
X0418908Y0251586D01*
X0422329Y0251586D01*
X0425489Y0252895D01*
X0427908Y0255314D01*
X0429218Y0258475D01*
X0429218Y0261896D01*
X0427908Y0265056D01*
X0425489Y0267475D01*
X0422329Y0268784D01*
X0426240Y0266725D02*
X0432181Y0266725D01*
X0432182Y0265127D02*
X0427838Y0265127D01*
X0428541Y0263528D02*
X0432183Y0263528D01*
X0432184Y0261930D02*
X0429204Y0261930D01*
X0429218Y0260331D02*
X0432185Y0260331D01*
X0432186Y0258733D02*
X0429218Y0258733D01*
X0428662Y0257134D02*
X0432187Y0257134D01*
X0432188Y0255536D02*
X0428000Y0255536D01*
X0426531Y0253937D02*
X0432189Y0253937D01*
X0432190Y0252339D02*
X0424145Y0252339D01*
X0417091Y0252339D02*
X0277195Y0252339D01*
X0277076Y0252458D02*
X0274981Y0253326D01*
X0272713Y0253326D01*
X0270618Y0252458D01*
X0269014Y0250855D01*
X0268847Y0250450D01*
X0268679Y0250855D01*
X0267076Y0252458D01*
X0264981Y0253326D01*
X0262713Y0253326D01*
X0260618Y0252458D01*
X0259014Y0250855D01*
X0258147Y0248760D01*
X0258147Y0246492D01*
X0259014Y0244397D01*
X0260618Y0242794D01*
X0262713Y0241926D01*
X0264981Y0241926D01*
X0267076Y0242794D01*
X0268679Y0244397D01*
X0268847Y0244802D01*
X0269014Y0244397D01*
X0270618Y0242794D01*
X0272713Y0241926D01*
X0274981Y0241926D01*
X0277076Y0242794D01*
X0278679Y0244397D01*
X0279547Y0246492D01*
X0279547Y0248760D01*
X0278679Y0250855D01*
X0277076Y0252458D01*
X0278727Y0250740D02*
X0432191Y0250740D01*
X0432193Y0249142D02*
X0279389Y0249142D01*
X0279547Y0247543D02*
X0432194Y0247543D01*
X0432195Y0245945D02*
X0279320Y0245945D01*
X0278628Y0244346D02*
X0432196Y0244346D01*
X0432197Y0242748D02*
X0276963Y0242748D01*
X0270730Y0242748D02*
X0266963Y0242748D01*
X0268628Y0244346D02*
X0269066Y0244346D01*
X0268967Y0250740D02*
X0268727Y0250740D01*
X0267195Y0252339D02*
X0270498Y0252339D01*
X0260498Y0252339D02*
X0063948Y0252339D01*
X0064326Y0252716D02*
X0065635Y0255876D01*
X0065635Y0259297D01*
X0064326Y0262458D01*
X0061907Y0264877D01*
X0058746Y0266186D01*
X0055325Y0266186D01*
X0052165Y0264877D01*
X0049746Y0262458D01*
X0048436Y0259297D01*
X0048436Y0255876D01*
X0049746Y0252716D01*
X0052165Y0250297D01*
X0055325Y0248988D01*
X0058746Y0248988D01*
X0061907Y0250297D01*
X0064326Y0252716D01*
X0064832Y0253937D02*
X0414705Y0253937D01*
X0413237Y0255536D02*
X0065494Y0255536D01*
X0065635Y0257134D02*
X0412574Y0257134D01*
X0412019Y0258733D02*
X0065635Y0258733D01*
X0065207Y0260331D02*
X0412019Y0260331D01*
X0412033Y0261930D02*
X0064545Y0261930D01*
X0063256Y0263528D02*
X0412695Y0263528D01*
X0413399Y0265127D02*
X0061304Y0265127D01*
X0052768Y0265127D02*
X0043690Y0265127D01*
X0043693Y0266725D02*
X0414997Y0266725D01*
X0417795Y0268324D02*
X0043696Y0268324D01*
X0043687Y0263528D02*
X0050816Y0263528D01*
X0049527Y0261930D02*
X0043683Y0261930D01*
X0043680Y0260331D02*
X0048865Y0260331D01*
X0048436Y0258733D02*
X0043677Y0258733D01*
X0043674Y0257134D02*
X0048436Y0257134D01*
X0048578Y0255536D02*
X0043671Y0255536D01*
X0043667Y0253937D02*
X0049240Y0253937D01*
X0050123Y0252339D02*
X0043664Y0252339D01*
X0043661Y0250740D02*
X0051721Y0250740D01*
X0054954Y0249142D02*
X0043658Y0249142D01*
X0043655Y0247543D02*
X0258147Y0247543D01*
X0258305Y0249142D02*
X0059118Y0249142D01*
X0062350Y0250740D02*
X0258967Y0250740D01*
X0258374Y0245945D02*
X0043651Y0245945D01*
X0043648Y0244346D02*
X0253692Y0244346D01*
X0253302Y0244184D02*
X0252210Y0243092D01*
X0251619Y0241666D01*
X0251619Y0240122D01*
X0252210Y0238695D01*
X0253302Y0237604D01*
X0254728Y0237013D01*
X0256272Y0237013D01*
X0257699Y0237604D01*
X0258790Y0238695D01*
X0259381Y0240122D01*
X0259381Y0241666D01*
X0258790Y0243092D01*
X0257699Y0244184D01*
X0256272Y0244775D01*
X0254728Y0244775D01*
X0253302Y0244184D01*
X0252067Y0242748D02*
X0043645Y0242748D01*
X0043642Y0241149D02*
X0251619Y0241149D01*
X0251856Y0239550D02*
X0043638Y0239550D01*
X0043635Y0237952D02*
X0252954Y0237952D01*
X0258047Y0237952D02*
X0432200Y0237952D01*
X0432199Y0239550D02*
X0259145Y0239550D01*
X0259381Y0241149D02*
X0432198Y0241149D01*
X0432201Y0236353D02*
X0043632Y0236353D01*
X0043629Y0234755D02*
X0432202Y0234755D01*
X0432203Y0233156D02*
X0043626Y0233156D01*
X0043622Y0231558D02*
X0432204Y0231558D01*
X0432205Y0229959D02*
X0043619Y0229959D01*
X0043616Y0228361D02*
X0432206Y0228361D01*
X0432208Y0226762D02*
X0043613Y0226762D01*
X0043609Y0225164D02*
X0432209Y0225164D01*
X0432210Y0223565D02*
X0075441Y0223565D01*
X0074913Y0224094D02*
X0072331Y0225163D01*
X0069536Y0225163D01*
X0066954Y0224094D01*
X0064978Y0222117D01*
X0063908Y0219535D01*
X0063908Y0216741D01*
X0064978Y0214159D01*
X0066954Y0212183D01*
X0069536Y0211113D01*
X0072331Y0211113D01*
X0074913Y0212183D01*
X0076889Y0214159D01*
X0077958Y0216741D01*
X0077958Y0219535D01*
X0076889Y0222117D01*
X0074913Y0224094D01*
X0076951Y0221967D02*
X0432211Y0221967D01*
X0432212Y0220368D02*
X0077613Y0220368D01*
X0077958Y0218770D02*
X0432213Y0218770D01*
X0432214Y0217171D02*
X0275234Y0217171D01*
X0275888Y0216901D02*
X0274461Y0217492D01*
X0272917Y0217492D01*
X0271491Y0216901D01*
X0270399Y0215809D01*
X0269808Y0214382D01*
X0269808Y0212838D01*
X0270399Y0211412D01*
X0270816Y0210995D01*
X0270364Y0209606D01*
X0269141Y0207923D01*
X0267457Y0206699D01*
X0265478Y0206056D01*
X0264437Y0205974D01*
X0260620Y0205974D01*
X0260620Y0208256D01*
X0260581Y0208324D01*
X0260581Y0213587D01*
X0259462Y0215525D01*
X0259462Y0215525D01*
X0259462Y0215525D01*
X0257524Y0216644D01*
X0243428Y0216644D01*
X0242541Y0217531D01*
X0241115Y0218122D01*
X0239571Y0218122D01*
X0238144Y0217531D01*
X0237053Y0216439D01*
X0236462Y0215012D01*
X0236462Y0213468D01*
X0237053Y0212042D01*
X0238144Y0210950D01*
X0239571Y0210359D01*
X0241115Y0210359D01*
X0242541Y0210950D01*
X0243035Y0211444D01*
X0255381Y0211444D01*
X0255381Y0207071D01*
X0255420Y0206976D01*
X0255420Y0202764D01*
X0255729Y0202228D01*
X0255816Y0202020D01*
X0255896Y0201939D01*
X0256148Y0201503D01*
X0256148Y0201503D01*
X0256148Y0201503D01*
X0256585Y0201251D01*
X0256665Y0201170D01*
X0256874Y0201084D01*
X0257410Y0200774D01*
X0266314Y0200774D01*
X0269885Y0201934D01*
X0272922Y0204141D01*
X0272922Y0204141D01*
X0275129Y0207178D01*
X0275129Y0207178D01*
X0276276Y0210709D01*
X0276979Y0211412D01*
X0277570Y0212838D01*
X0277570Y0214382D01*
X0276979Y0215809D01*
X0275888Y0216901D01*
X0277077Y0215573D02*
X0432215Y0215573D01*
X0432216Y0213974D02*
X0277570Y0213974D01*
X0277379Y0212376D02*
X0432217Y0212376D01*
X0432218Y0210777D02*
X0276345Y0210777D01*
X0275779Y0209179D02*
X0432219Y0209179D01*
X0432220Y0207580D02*
X0275260Y0207580D01*
X0274260Y0205982D02*
X0432222Y0205982D01*
X0432223Y0204383D02*
X0273098Y0204383D01*
X0272922Y0204141D02*
X0272922Y0204141D01*
X0271055Y0202785D02*
X0432224Y0202785D01*
X0432225Y0201186D02*
X0267582Y0201186D01*
X0269885Y0201934D02*
X0269885Y0201934D01*
X0264532Y0205982D02*
X0260620Y0205982D01*
X0260620Y0207580D02*
X0268670Y0207580D01*
X0270054Y0209179D02*
X0260581Y0209179D01*
X0260581Y0210777D02*
X0270745Y0210777D01*
X0270000Y0212376D02*
X0260581Y0212376D01*
X0260357Y0213974D02*
X0269808Y0213974D01*
X0270301Y0215573D02*
X0259379Y0215573D01*
X0255381Y0210777D02*
X0242124Y0210777D01*
X0238562Y0210777D02*
X0232570Y0210777D01*
X0232570Y0211194D02*
X0231979Y0212620D01*
X0230888Y0213712D01*
X0229855Y0214140D01*
X0228899Y0215096D01*
X0226873Y0215935D01*
X0190633Y0215935D01*
X0189943Y0216625D01*
X0188516Y0217216D01*
X0186972Y0217216D01*
X0185546Y0216625D01*
X0184856Y0215935D01*
X0181604Y0215935D01*
X0181536Y0215896D01*
X0180677Y0215896D01*
X0179141Y0215009D01*
X0178255Y0213473D01*
X0178255Y0205736D01*
X0178253Y0205721D01*
X0178242Y0205694D01*
X0178220Y0205672D01*
X0178192Y0205661D01*
X0178177Y0205659D01*
X0167001Y0205659D01*
X0167001Y0205659D01*
X0154083Y0205659D01*
X0153638Y0205703D01*
X0152815Y0206044D01*
X0152674Y0206185D01*
X0153082Y0207169D01*
X0153082Y0208713D01*
X0152491Y0210140D01*
X0151400Y0211231D01*
X0149973Y0211822D01*
X0148429Y0211822D01*
X0147003Y0211231D01*
X0145911Y0210140D01*
X0145320Y0208713D01*
X0145320Y0207169D01*
X0145911Y0205743D01*
X0147003Y0204651D01*
X0147419Y0204479D01*
X0147740Y0203703D01*
X0149845Y0201598D01*
X0152595Y0200459D01*
X0165787Y0200459D01*
X0169396Y0200459D01*
X0169396Y0191445D01*
X0169345Y0190793D01*
X0168942Y0189551D01*
X0168174Y0188495D01*
X0167431Y0187955D01*
X0167423Y0187964D01*
X0165997Y0188555D01*
X0164453Y0188555D01*
X0163026Y0187964D01*
X0161934Y0186872D01*
X0161344Y0185445D01*
X0161344Y0183901D01*
X0161934Y0182475D01*
X0163026Y0181383D01*
X0164453Y0180792D01*
X0165997Y0180792D01*
X0167423Y0181383D01*
X0168515Y0182475D01*
X0168604Y0182689D01*
X0169532Y0182991D01*
X0171934Y0184736D01*
X0173679Y0187137D01*
X0173679Y0187137D01*
X0174596Y0189961D01*
X0174596Y0200459D01*
X0179227Y0200459D01*
X0181167Y0201263D01*
X0182651Y0202747D01*
X0183455Y0204687D01*
X0183455Y0210735D01*
X0184856Y0210735D01*
X0185546Y0210045D01*
X0186972Y0209454D01*
X0188516Y0209454D01*
X0189943Y0210045D01*
X0190633Y0210735D01*
X0224808Y0210735D01*
X0224808Y0209650D01*
X0225399Y0208223D01*
X0226491Y0207131D01*
X0227917Y0206540D01*
X0229461Y0206540D01*
X0230888Y0207131D01*
X0231979Y0208223D01*
X0232570Y0209650D01*
X0232570Y0211194D01*
X0232081Y0212376D02*
X0236914Y0212376D01*
X0236462Y0213974D02*
X0230254Y0213974D01*
X0228899Y0215096D02*
X0228899Y0215096D01*
X0227747Y0215573D02*
X0236694Y0215573D01*
X0237785Y0217171D02*
X0188624Y0217171D01*
X0186864Y0217171D02*
X0077958Y0217171D01*
X0077475Y0215573D02*
X0180118Y0215573D01*
X0179141Y0215009D02*
X0179141Y0215009D01*
X0179141Y0215009D01*
X0178544Y0213974D02*
X0076704Y0213974D01*
X0075106Y0212376D02*
X0178255Y0212376D01*
X0178255Y0210777D02*
X0151854Y0210777D01*
X0152889Y0209179D02*
X0178255Y0209179D01*
X0178255Y0207580D02*
X0153082Y0207580D01*
X0152965Y0205982D02*
X0178255Y0205982D01*
X0183455Y0205982D02*
X0255420Y0205982D01*
X0255381Y0207580D02*
X0231337Y0207580D01*
X0232375Y0209179D02*
X0255381Y0209179D01*
X0255420Y0204383D02*
X0183329Y0204383D01*
X0182667Y0202785D02*
X0255420Y0202785D01*
X0256649Y0201186D02*
X0180982Y0201186D01*
X0181167Y0201263D02*
X0181167Y0201263D01*
X0182651Y0202747D02*
X0182651Y0202747D01*
X0183455Y0207580D02*
X0226042Y0207580D01*
X0225003Y0209179D02*
X0183455Y0209179D01*
X0174596Y0199588D02*
X0432226Y0199588D01*
X0432227Y0197989D02*
X0404331Y0197989D01*
X0404384Y0197967D02*
X0402068Y0198926D01*
X0399562Y0198926D01*
X0397247Y0197967D01*
X0395474Y0196195D01*
X0394515Y0193879D01*
X0394515Y0191373D01*
X0395474Y0189058D01*
X0396827Y0187705D01*
X0395474Y0186352D01*
X0394515Y0184037D01*
X0394515Y0181531D01*
X0395474Y0179215D01*
X0397247Y0177443D01*
X0398373Y0176976D01*
X0398174Y0176894D01*
X0396863Y0175582D01*
X0396153Y0173869D01*
X0396153Y0172014D01*
X0396863Y0170300D01*
X0398174Y0168989D01*
X0398373Y0168906D01*
X0397247Y0168440D01*
X0395474Y0166667D01*
X0394515Y0164352D01*
X0394515Y0161846D01*
X0395474Y0159530D01*
X0396827Y0158177D01*
X0395474Y0156825D01*
X0394515Y0154509D01*
X0394515Y0152003D01*
X0395474Y0149688D01*
X0397247Y0147915D01*
X0399562Y0146956D01*
X0402068Y0146956D01*
X0404384Y0147915D01*
X0406156Y0149688D01*
X0407115Y0152003D01*
X0407115Y0154509D01*
X0406156Y0156825D01*
X0404803Y0158177D01*
X0406156Y0159530D01*
X0407115Y0161846D01*
X0407115Y0164352D01*
X0406156Y0166667D01*
X0404384Y0168440D01*
X0403257Y0168906D01*
X0403456Y0168989D01*
X0404768Y0170300D01*
X0405477Y0172014D01*
X0405477Y0173869D01*
X0404768Y0175582D01*
X0403456Y0176894D01*
X0403257Y0176976D01*
X0404384Y0177443D01*
X0406156Y0179215D01*
X0407115Y0181531D01*
X0407115Y0184037D01*
X0406156Y0186352D01*
X0404803Y0187705D01*
X0406156Y0189058D01*
X0407115Y0191373D01*
X0407115Y0193879D01*
X0406156Y0196195D01*
X0404384Y0197967D01*
X0405960Y0196391D02*
X0417671Y0196391D01*
X0417859Y0196579D02*
X0416548Y0195267D01*
X0415838Y0193554D01*
X0415838Y0191699D01*
X0416548Y0189985D01*
X0417859Y0188674D01*
X0419573Y0187964D01*
X0421428Y0187964D01*
X0423141Y0188674D01*
X0424453Y0189985D01*
X0425162Y0191699D01*
X0425162Y0193554D01*
X0424453Y0195267D01*
X0423141Y0196579D01*
X0421428Y0197288D01*
X0419573Y0197288D01*
X0417859Y0196579D01*
X0416351Y0194792D02*
X0406737Y0194792D01*
X0407115Y0193194D02*
X0415838Y0193194D01*
X0415881Y0191595D02*
X0407115Y0191595D01*
X0406545Y0189997D02*
X0416543Y0189997D01*
X0418525Y0188398D02*
X0405497Y0188398D01*
X0405709Y0186800D02*
X0432234Y0186800D01*
X0432235Y0185201D02*
X0406633Y0185201D01*
X0407115Y0183603D02*
X0432237Y0183603D01*
X0432238Y0182004D02*
X0407115Y0182004D01*
X0406649Y0180406D02*
X0432239Y0180406D01*
X0432240Y0178807D02*
X0405748Y0178807D01*
X0403818Y0177209D02*
X0432241Y0177209D01*
X0432242Y0175610D02*
X0404740Y0175610D01*
X0405418Y0174012D02*
X0432243Y0174012D01*
X0432244Y0172413D02*
X0405477Y0172413D01*
X0404981Y0170814D02*
X0432245Y0170814D01*
X0432246Y0169216D02*
X0403683Y0169216D01*
X0405206Y0167617D02*
X0432247Y0167617D01*
X0432248Y0166019D02*
X0406425Y0166019D01*
X0407087Y0164420D02*
X0432249Y0164420D01*
X0432250Y0162822D02*
X0407115Y0162822D01*
X0406858Y0161223D02*
X0432252Y0161223D01*
X0432253Y0159625D02*
X0406195Y0159625D01*
X0404955Y0158026D02*
X0432254Y0158026D01*
X0426921Y0156428D02*
X0423922Y0156428D01*
X0424453Y0155897D02*
X0423141Y0157209D01*
X0421428Y0157918D01*
X0419573Y0157918D01*
X0417859Y0157209D01*
X0416548Y0155897D01*
X0415838Y0154184D01*
X0415838Y0152329D01*
X0416548Y0150615D01*
X0417859Y0149304D01*
X0419573Y0148594D01*
X0421428Y0148594D01*
X0423141Y0149304D01*
X0424453Y0150615D01*
X0425162Y0152329D01*
X0425162Y0154184D01*
X0424453Y0155897D01*
X0424895Y0154829D02*
X0425948Y0154829D01*
X0425681Y0153231D02*
X0425162Y0153231D01*
X0424874Y0151632D02*
X0425969Y0151632D01*
X0426972Y0150034D02*
X0423871Y0150034D01*
X0417129Y0150034D02*
X0406300Y0150034D01*
X0406962Y0151632D02*
X0416127Y0151632D01*
X0415838Y0153231D02*
X0407115Y0153231D01*
X0406983Y0154829D02*
X0416106Y0154829D01*
X0417079Y0156428D02*
X0406321Y0156428D01*
X0396676Y0158026D02*
X0369775Y0158026D01*
X0369775Y0158556D02*
X0369184Y0159982D01*
X0368092Y0161074D01*
X0366666Y0161665D01*
X0365122Y0161665D01*
X0363695Y0161074D01*
X0362604Y0159982D01*
X0362013Y0158556D01*
X0362013Y0157012D01*
X0362604Y0155585D01*
X0363412Y0154777D01*
X0363412Y0151381D01*
X0362722Y0150691D01*
X0362131Y0149264D01*
X0362131Y0147720D01*
X0362722Y0146294D01*
X0363814Y0145202D01*
X0365240Y0144611D01*
X0366784Y0144611D01*
X0368211Y0145202D01*
X0369302Y0146294D01*
X0369893Y0147720D01*
X0369893Y0149264D01*
X0369302Y0150691D01*
X0368612Y0151381D01*
X0368612Y0155013D01*
X0369184Y0155585D01*
X0369775Y0157012D01*
X0369775Y0158556D01*
X0369332Y0159625D02*
X0395435Y0159625D01*
X0394773Y0161223D02*
X0367732Y0161223D01*
X0364056Y0161223D02*
X0338262Y0161223D01*
X0337886Y0161068D02*
X0339313Y0161659D01*
X0340405Y0162751D01*
X0340996Y0164177D01*
X0340996Y0165721D01*
X0340405Y0167148D01*
X0339313Y0168239D01*
X0337886Y0168830D01*
X0336342Y0168830D01*
X0335246Y0168376D01*
X0319806Y0168376D01*
X0319116Y0169066D01*
X0317690Y0169657D01*
X0316146Y0169657D01*
X0314719Y0169066D01*
X0314360Y0168707D01*
X0314360Y0178256D01*
X0314402Y0178686D01*
X0314731Y0179480D01*
X0314828Y0179577D01*
X0315791Y0179178D01*
X0317335Y0179178D01*
X0318762Y0179769D01*
X0319853Y0180861D01*
X0320444Y0182287D01*
X0320444Y0183831D01*
X0319853Y0185258D01*
X0318762Y0186350D01*
X0317335Y0186940D01*
X0315791Y0186940D01*
X0314365Y0186350D01*
X0313273Y0185258D01*
X0313097Y0184834D01*
X0312370Y0184532D01*
X0312370Y0184532D01*
X0310287Y0182450D01*
X0310287Y0182450D01*
X0309160Y0179729D01*
X0309160Y0168586D01*
X0308470Y0167896D01*
X0307879Y0166469D01*
X0307879Y0164925D01*
X0308470Y0163499D01*
X0309562Y0162407D01*
X0310988Y0161816D01*
X0312532Y0161816D01*
X0313959Y0162407D01*
X0314378Y0162827D01*
X0314719Y0162486D01*
X0316146Y0161895D01*
X0317690Y0161895D01*
X0319116Y0162486D01*
X0319806Y0163176D01*
X0333648Y0163176D01*
X0333824Y0162751D01*
X0334916Y0161659D01*
X0336342Y0161068D01*
X0337886Y0161068D01*
X0335967Y0161223D02*
X0043481Y0161223D01*
X0043478Y0159625D02*
X0362456Y0159625D01*
X0362013Y0158026D02*
X0043474Y0158026D01*
X0043471Y0156428D02*
X0362255Y0156428D01*
X0363360Y0154829D02*
X0282303Y0154829D01*
X0282076Y0155057D02*
X0283679Y0153453D01*
X0284547Y0151358D01*
X0284547Y0149091D01*
X0283679Y0146996D01*
X0282076Y0145392D01*
X0279981Y0144525D01*
X0277713Y0144525D01*
X0275618Y0145392D01*
X0274014Y0146996D01*
X0273847Y0147401D01*
X0273679Y0146996D01*
X0272076Y0145392D01*
X0269981Y0144525D01*
X0267713Y0144525D01*
X0265618Y0145392D01*
X0264014Y0146996D01*
X0263147Y0149091D01*
X0263147Y0151358D01*
X0264014Y0153453D01*
X0265618Y0155057D01*
X0267713Y0155925D01*
X0269981Y0155925D01*
X0272076Y0155057D01*
X0273679Y0153453D01*
X0273847Y0153048D01*
X0274014Y0153453D01*
X0275618Y0155057D01*
X0277713Y0155925D01*
X0279981Y0155925D01*
X0282076Y0155057D01*
X0283771Y0153231D02*
X0363412Y0153231D01*
X0363412Y0151632D02*
X0284433Y0151632D01*
X0284547Y0150034D02*
X0362450Y0150034D01*
X0362131Y0148435D02*
X0284275Y0148435D01*
X0283520Y0146837D02*
X0362497Y0146837D01*
X0363777Y0145238D02*
X0281703Y0145238D01*
X0275990Y0145238D02*
X0271703Y0145238D01*
X0273520Y0146837D02*
X0274174Y0146837D01*
X0273922Y0153231D02*
X0273771Y0153231D01*
X0272303Y0154829D02*
X0275390Y0154829D01*
X0265390Y0154829D02*
X0043468Y0154829D01*
X0043465Y0153231D02*
X0263922Y0153231D01*
X0263260Y0151632D02*
X0043462Y0151632D01*
X0043458Y0150034D02*
X0263147Y0150034D01*
X0263418Y0148435D02*
X0043455Y0148435D01*
X0043452Y0146837D02*
X0264174Y0146837D01*
X0265990Y0145238D02*
X0043449Y0145238D01*
X0043446Y0143640D02*
X0432263Y0143640D01*
X0432262Y0145238D02*
X0368247Y0145238D01*
X0369527Y0146837D02*
X0432261Y0146837D01*
X0432260Y0148435D02*
X0404904Y0148435D01*
X0396727Y0148435D02*
X0369893Y0148435D01*
X0369574Y0150034D02*
X0395331Y0150034D01*
X0394669Y0151632D02*
X0368612Y0151632D01*
X0368612Y0153231D02*
X0394515Y0153231D01*
X0394648Y0154829D02*
X0368612Y0154829D01*
X0369533Y0156428D02*
X0395310Y0156428D01*
X0394515Y0162822D02*
X0340434Y0162822D01*
X0340996Y0164420D02*
X0394544Y0164420D01*
X0395206Y0166019D02*
X0340872Y0166019D01*
X0339935Y0167617D02*
X0396424Y0167617D01*
X0397947Y0169216D02*
X0318754Y0169216D01*
X0315081Y0169216D02*
X0314360Y0169216D01*
X0314360Y0170814D02*
X0396650Y0170814D01*
X0396153Y0172413D02*
X0314360Y0172413D01*
X0314360Y0174012D02*
X0396212Y0174012D01*
X0396891Y0175610D02*
X0314360Y0175610D01*
X0314360Y0177209D02*
X0397812Y0177209D01*
X0395882Y0178807D02*
X0314453Y0178807D01*
X0319398Y0180406D02*
X0394981Y0180406D01*
X0394515Y0182004D02*
X0320327Y0182004D01*
X0320444Y0183603D02*
X0394515Y0183603D01*
X0394997Y0185201D02*
X0319877Y0185201D01*
X0317675Y0186800D02*
X0395922Y0186800D01*
X0396134Y0188398D02*
X0367745Y0188398D01*
X0368014Y0188509D02*
X0369105Y0189601D01*
X0369696Y0191027D01*
X0369696Y0192571D01*
X0369105Y0193998D01*
X0368014Y0195090D01*
X0366587Y0195681D01*
X0365043Y0195681D01*
X0363617Y0195090D01*
X0362927Y0194399D01*
X0357090Y0194399D01*
X0356321Y0195168D01*
X0354894Y0195759D01*
X0353350Y0195759D01*
X0351924Y0195168D01*
X0350832Y0194077D01*
X0350241Y0192650D01*
X0350241Y0191106D01*
X0350832Y0189680D01*
X0351924Y0188588D01*
X0353350Y0187997D01*
X0354894Y0187997D01*
X0356321Y0188588D01*
X0356932Y0189199D01*
X0362927Y0189199D01*
X0363617Y0188509D01*
X0365043Y0187918D01*
X0366587Y0187918D01*
X0368014Y0188509D01*
X0369269Y0189997D02*
X0395085Y0189997D01*
X0394515Y0191595D02*
X0369696Y0191595D01*
X0369439Y0193194D02*
X0394515Y0193194D01*
X0394893Y0194792D02*
X0368311Y0194792D01*
X0363319Y0194792D02*
X0356697Y0194792D01*
X0351548Y0194792D02*
X0174596Y0194792D01*
X0174596Y0193194D02*
X0350466Y0193194D01*
X0350241Y0191595D02*
X0174596Y0191595D01*
X0174596Y0189997D02*
X0350701Y0189997D01*
X0352382Y0188398D02*
X0174089Y0188398D01*
X0173433Y0186800D02*
X0315451Y0186800D01*
X0313250Y0185201D02*
X0172272Y0185201D01*
X0171934Y0184736D02*
X0171934Y0184736D01*
X0170374Y0183603D02*
X0311440Y0183603D01*
X0310103Y0182004D02*
X0168044Y0182004D01*
X0162405Y0182004D02*
X0043523Y0182004D01*
X0043519Y0180406D02*
X0309440Y0180406D01*
X0309160Y0178807D02*
X0043516Y0178807D01*
X0043513Y0177209D02*
X0309160Y0177209D01*
X0309160Y0175610D02*
X0043510Y0175610D01*
X0043507Y0174012D02*
X0309160Y0174012D01*
X0309160Y0172413D02*
X0043503Y0172413D01*
X0043500Y0170814D02*
X0309160Y0170814D01*
X0309160Y0169216D02*
X0043497Y0169216D01*
X0043494Y0167617D02*
X0308355Y0167617D01*
X0307879Y0166019D02*
X0043491Y0166019D01*
X0043487Y0164420D02*
X0308088Y0164420D01*
X0309147Y0162822D02*
X0043484Y0162822D01*
X0043526Y0183603D02*
X0161467Y0183603D01*
X0161344Y0185201D02*
X0043529Y0185201D01*
X0043532Y0186800D02*
X0161904Y0186800D01*
X0164075Y0188398D02*
X0043536Y0188398D01*
X0043539Y0189997D02*
X0169086Y0189997D01*
X0169396Y0191595D02*
X0073495Y0191595D01*
X0072331Y0191113D02*
X0074913Y0192183D01*
X0076889Y0194159D01*
X0077958Y0196741D01*
X0077958Y0199535D01*
X0076889Y0202117D01*
X0074913Y0204094D01*
X0072331Y0205163D01*
X0069536Y0205163D01*
X0066954Y0204094D01*
X0064978Y0202117D01*
X0063908Y0199535D01*
X0063908Y0196741D01*
X0064978Y0194159D01*
X0066954Y0192183D01*
X0069536Y0191113D01*
X0072331Y0191113D01*
X0068372Y0191595D02*
X0053495Y0191595D01*
X0052331Y0191113D02*
X0054913Y0192183D01*
X0056889Y0194159D01*
X0057958Y0196741D01*
X0057958Y0199535D01*
X0056889Y0202117D01*
X0054913Y0204094D01*
X0052331Y0205163D01*
X0049536Y0205163D01*
X0046954Y0204094D01*
X0044978Y0202117D01*
X0043908Y0199535D01*
X0043908Y0196741D01*
X0044978Y0194159D01*
X0046954Y0192183D01*
X0049536Y0191113D01*
X0052331Y0191113D01*
X0048372Y0191595D02*
X0043542Y0191595D01*
X0043545Y0193194D02*
X0045943Y0193194D01*
X0044715Y0194792D02*
X0043548Y0194792D01*
X0043552Y0196391D02*
X0044053Y0196391D01*
X0043908Y0197989D02*
X0043555Y0197989D01*
X0043558Y0199588D02*
X0043930Y0199588D01*
X0043561Y0201186D02*
X0044592Y0201186D01*
X0043564Y0202785D02*
X0045645Y0202785D01*
X0047653Y0204383D02*
X0043568Y0204383D01*
X0043571Y0205982D02*
X0054872Y0205982D01*
X0054508Y0206860D02*
X0055486Y0204499D01*
X0057294Y0202691D01*
X0059655Y0201713D01*
X0062211Y0201713D01*
X0064573Y0202691D01*
X0066380Y0204499D01*
X0067358Y0206860D01*
X0067358Y0209416D01*
X0066380Y0211778D01*
X0064573Y0213585D01*
X0062211Y0214563D01*
X0059655Y0214563D01*
X0057294Y0213585D01*
X0055486Y0211778D01*
X0054508Y0209416D01*
X0054508Y0206860D01*
X0054508Y0207580D02*
X0043574Y0207580D01*
X0043577Y0209179D02*
X0054508Y0209179D01*
X0055072Y0210777D02*
X0043581Y0210777D01*
X0043584Y0212376D02*
X0046761Y0212376D01*
X0046954Y0212183D02*
X0049536Y0211113D01*
X0052331Y0211113D01*
X0054913Y0212183D01*
X0056889Y0214159D01*
X0057958Y0216741D01*
X0057958Y0219535D01*
X0056889Y0222117D01*
X0054913Y0224094D01*
X0052331Y0225163D01*
X0049536Y0225163D01*
X0046954Y0224094D01*
X0044978Y0222117D01*
X0043908Y0219535D01*
X0043908Y0216741D01*
X0044978Y0214159D01*
X0046954Y0212183D01*
X0045162Y0213974D02*
X0043587Y0213974D01*
X0043590Y0215573D02*
X0044392Y0215573D01*
X0043908Y0217171D02*
X0043593Y0217171D01*
X0043597Y0218770D02*
X0043908Y0218770D01*
X0043600Y0220368D02*
X0044253Y0220368D01*
X0043603Y0221967D02*
X0044915Y0221967D01*
X0043606Y0223565D02*
X0046426Y0223565D01*
X0055441Y0223565D02*
X0066426Y0223565D01*
X0064915Y0221967D02*
X0056951Y0221967D01*
X0057613Y0220368D02*
X0064253Y0220368D01*
X0063908Y0218770D02*
X0057958Y0218770D01*
X0057958Y0217171D02*
X0063908Y0217171D01*
X0064392Y0215573D02*
X0057475Y0215573D01*
X0058234Y0213974D02*
X0056704Y0213974D01*
X0056085Y0212376D02*
X0055106Y0212376D01*
X0063633Y0213974D02*
X0065162Y0213974D01*
X0065782Y0212376D02*
X0066761Y0212376D01*
X0066794Y0210777D02*
X0146548Y0210777D01*
X0145513Y0209179D02*
X0067358Y0209179D01*
X0067358Y0207580D02*
X0145320Y0207580D01*
X0145812Y0205982D02*
X0066995Y0205982D01*
X0067653Y0204383D02*
X0066265Y0204383D01*
X0065645Y0202785D02*
X0064666Y0202785D01*
X0064592Y0201186D02*
X0057275Y0201186D01*
X0057200Y0202785D02*
X0056221Y0202785D01*
X0055602Y0204383D02*
X0054213Y0204383D01*
X0057937Y0199588D02*
X0063930Y0199588D01*
X0063908Y0197989D02*
X0057958Y0197989D01*
X0057813Y0196391D02*
X0064053Y0196391D01*
X0064715Y0194792D02*
X0057151Y0194792D01*
X0055924Y0193194D02*
X0065943Y0193194D01*
X0075924Y0193194D02*
X0169396Y0193194D01*
X0169396Y0194792D02*
X0077151Y0194792D01*
X0077813Y0196391D02*
X0169396Y0196391D01*
X0169396Y0197989D02*
X0077958Y0197989D01*
X0077937Y0199588D02*
X0169396Y0199588D01*
X0165787Y0200459D02*
X0165787Y0200459D01*
X0174596Y0197989D02*
X0397300Y0197989D01*
X0395670Y0196391D02*
X0174596Y0196391D01*
X0168041Y0188398D02*
X0166374Y0188398D01*
X0150840Y0201186D02*
X0077275Y0201186D01*
X0076221Y0202785D02*
X0148658Y0202785D01*
X0147740Y0203703D02*
X0147740Y0203703D01*
X0147458Y0204383D02*
X0074213Y0204383D01*
X0149845Y0201598D02*
X0149845Y0201598D01*
X0242901Y0217171D02*
X0272144Y0217171D01*
X0260730Y0242748D02*
X0258933Y0242748D01*
X0259066Y0244346D02*
X0257308Y0244346D01*
X0355862Y0188398D02*
X0363885Y0188398D01*
X0333795Y0162822D02*
X0319452Y0162822D01*
X0314383Y0162822D02*
X0314374Y0162822D01*
X0349050Y0117334D02*
X0350476Y0117925D01*
X0352020Y0117925D01*
X0353447Y0117334D01*
X0354137Y0116644D01*
X0369816Y0116644D01*
X0370428Y0117255D01*
X0371854Y0117846D01*
X0373398Y0117846D01*
X0374825Y0117255D01*
X0375916Y0116163D01*
X0376507Y0114737D01*
X0376507Y0113193D01*
X0375916Y0111766D01*
X0374825Y0110675D01*
X0373398Y0110084D01*
X0371854Y0110084D01*
X0370428Y0110675D01*
X0369659Y0111444D01*
X0354137Y0111444D01*
X0353447Y0110753D01*
X0352020Y0110162D01*
X0350476Y0110162D01*
X0349050Y0110753D01*
X0347958Y0111845D01*
X0347367Y0113272D01*
X0347367Y0114816D01*
X0347958Y0116242D01*
X0349050Y0117334D01*
X0348181Y0116465D02*
X0134760Y0116465D01*
X0134703Y0116327D02*
X0135570Y0118422D01*
X0135570Y0120689D01*
X0134703Y0122784D01*
X0133099Y0124388D01*
X0131004Y0125255D01*
X0128737Y0125255D01*
X0126642Y0124388D01*
X0125038Y0122784D01*
X0124170Y0120689D01*
X0124170Y0118422D01*
X0125038Y0116327D01*
X0126642Y0114723D01*
X0127047Y0114555D01*
X0126642Y0114388D01*
X0125038Y0112784D01*
X0124170Y0110689D01*
X0124170Y0108422D01*
X0125038Y0106327D01*
X0126642Y0104723D01*
X0128737Y0103855D01*
X0131004Y0103855D01*
X0133099Y0104723D01*
X0134703Y0106327D01*
X0135570Y0108422D01*
X0135570Y0110689D01*
X0134703Y0112784D01*
X0133099Y0114388D01*
X0132694Y0114555D01*
X0133099Y0114723D01*
X0134703Y0116327D01*
X0135422Y0118064D02*
X0395886Y0118064D01*
X0395868Y0118045D02*
X0394909Y0115730D01*
X0394909Y0113223D01*
X0395868Y0110908D01*
X0397640Y0109136D01*
X0398767Y0108669D01*
X0398568Y0108587D01*
X0397256Y0107275D01*
X0396547Y0105561D01*
X0396547Y0103707D01*
X0397256Y0101993D01*
X0398568Y0100682D01*
X0398767Y0100599D01*
X0397640Y0100132D01*
X0395868Y0098360D01*
X0394909Y0096045D01*
X0394909Y0093538D01*
X0395868Y0091223D01*
X0397221Y0089870D01*
X0395868Y0088518D01*
X0394909Y0086202D01*
X0394909Y0083696D01*
X0395868Y0081380D01*
X0397640Y0079608D01*
X0399956Y0078649D01*
X0402462Y0078649D01*
X0404778Y0079608D01*
X0406550Y0081380D01*
X0407509Y0083696D01*
X0407509Y0086202D01*
X0406550Y0088518D01*
X0405197Y0089870D01*
X0406550Y0091223D01*
X0407509Y0093538D01*
X0407509Y0096045D01*
X0406550Y0098360D01*
X0404778Y0100132D01*
X0403651Y0100599D01*
X0403850Y0100682D01*
X0405161Y0101993D01*
X0405871Y0103707D01*
X0405871Y0105561D01*
X0405161Y0107275D01*
X0403850Y0108587D01*
X0403651Y0108669D01*
X0404778Y0109136D01*
X0406550Y0110908D01*
X0407509Y0113223D01*
X0407509Y0115730D01*
X0406550Y0118045D01*
X0405197Y0119398D01*
X0406550Y0120750D01*
X0407509Y0123066D01*
X0407509Y0125572D01*
X0406550Y0127888D01*
X0404778Y0129660D01*
X0402462Y0130619D01*
X0399956Y0130619D01*
X0397640Y0129660D01*
X0395868Y0127888D01*
X0394909Y0125572D01*
X0394909Y0123066D01*
X0395868Y0120750D01*
X0397221Y0119398D01*
X0395868Y0118045D01*
X0395214Y0116465D02*
X0375615Y0116465D01*
X0376454Y0114867D02*
X0394909Y0114867D01*
X0394909Y0113268D02*
X0376507Y0113268D01*
X0375820Y0111670D02*
X0395553Y0111670D01*
X0396705Y0110071D02*
X0135570Y0110071D01*
X0135570Y0108473D02*
X0398454Y0108473D01*
X0397090Y0106874D02*
X0134929Y0106874D01*
X0133652Y0105276D02*
X0396547Y0105276D01*
X0396559Y0103677D02*
X0043365Y0103677D01*
X0043362Y0102079D02*
X0397221Y0102079D01*
X0398479Y0100480D02*
X0043359Y0100480D01*
X0043355Y0098881D02*
X0396389Y0098881D01*
X0395422Y0097283D02*
X0043352Y0097283D01*
X0043349Y0095684D02*
X0394909Y0095684D01*
X0394909Y0094086D02*
X0043346Y0094086D01*
X0043343Y0092487D02*
X0395344Y0092487D01*
X0396202Y0090889D02*
X0043339Y0090889D01*
X0043336Y0089290D02*
X0396641Y0089290D01*
X0395526Y0087692D02*
X0043333Y0087692D01*
X0043330Y0086093D02*
X0394909Y0086093D01*
X0394909Y0084495D02*
X0043327Y0084495D01*
X0043323Y0082896D02*
X0395240Y0082896D01*
X0395951Y0081298D02*
X0043320Y0081298D01*
X0043317Y0079699D02*
X0397549Y0079699D01*
X0404869Y0079699D02*
X0432306Y0079699D01*
X0432307Y0078101D02*
X0043314Y0078101D01*
X0043310Y0076502D02*
X0210977Y0076502D01*
X0211363Y0076889D02*
X0209387Y0074913D01*
X0208318Y0072331D01*
X0208318Y0069536D01*
X0209387Y0066954D01*
X0211363Y0064978D01*
X0213945Y0063908D01*
X0216740Y0063908D01*
X0219322Y0064978D01*
X0221298Y0066954D01*
X0222368Y0069536D01*
X0222368Y0072331D01*
X0221298Y0074913D01*
X0219322Y0076889D01*
X0216740Y0077958D01*
X0213945Y0077958D01*
X0211363Y0076889D01*
X0209384Y0074904D02*
X0043307Y0074904D01*
X0043304Y0073305D02*
X0208721Y0073305D01*
X0208318Y0071707D02*
X0043301Y0071707D01*
X0043298Y0070108D02*
X0208318Y0070108D01*
X0208743Y0068510D02*
X0043294Y0068510D01*
X0043291Y0066911D02*
X0209430Y0066911D01*
X0211029Y0065313D02*
X0043288Y0065313D01*
X0043285Y0063714D02*
X0219540Y0063714D01*
X0219896Y0064573D02*
X0218918Y0062211D01*
X0218918Y0059655D01*
X0219896Y0057294D01*
X0221703Y0055486D01*
X0224065Y0054508D01*
X0226621Y0054508D01*
X0228982Y0055486D01*
X0230790Y0057294D01*
X0231768Y0059655D01*
X0231768Y0062211D01*
X0230790Y0064573D01*
X0228982Y0066380D01*
X0226621Y0067358D01*
X0224065Y0067358D01*
X0221703Y0066380D01*
X0219896Y0064573D01*
X0219657Y0065313D02*
X0220636Y0065313D01*
X0221256Y0066911D02*
X0222985Y0066911D01*
X0221943Y0068510D02*
X0228743Y0068510D01*
X0228318Y0069536D02*
X0228318Y0072331D01*
X0229387Y0074913D01*
X0231363Y0076889D01*
X0233945Y0077958D01*
X0236740Y0077958D01*
X0239322Y0076889D01*
X0241298Y0074913D01*
X0242368Y0072331D01*
X0242368Y0069536D01*
X0241298Y0066954D01*
X0239322Y0064978D01*
X0236740Y0063908D01*
X0233945Y0063908D01*
X0231363Y0064978D01*
X0229387Y0066954D01*
X0228318Y0069536D01*
X0228318Y0070108D02*
X0222368Y0070108D01*
X0222368Y0071707D02*
X0228318Y0071707D01*
X0228721Y0073305D02*
X0221964Y0073305D01*
X0221302Y0074904D02*
X0229384Y0074904D01*
X0230977Y0076502D02*
X0219709Y0076502D01*
X0227700Y0066911D02*
X0229430Y0066911D01*
X0230050Y0065313D02*
X0231029Y0065313D01*
X0231145Y0063714D02*
X0432317Y0063714D01*
X0432318Y0062116D02*
X0231768Y0062116D01*
X0231768Y0060517D02*
X0432319Y0060517D01*
X0432320Y0058919D02*
X0423021Y0058919D01*
X0422014Y0059336D02*
X0418593Y0059336D01*
X0415432Y0058027D01*
X0413013Y0055608D01*
X0411704Y0052447D01*
X0411704Y0049026D01*
X0413013Y0045865D01*
X0415432Y0043446D01*
X0418593Y0042137D01*
X0422014Y0042137D01*
X0425174Y0043446D01*
X0427593Y0045865D01*
X0428903Y0049026D01*
X0428903Y0052447D01*
X0427593Y0055608D01*
X0425174Y0058027D01*
X0422014Y0059336D01*
X0425881Y0057320D02*
X0432321Y0057320D01*
X0432322Y0055722D02*
X0427479Y0055722D01*
X0428208Y0054123D02*
X0432323Y0054123D01*
X0432324Y0052525D02*
X0428870Y0052525D01*
X0428903Y0050926D02*
X0432326Y0050926D01*
X0432327Y0049328D02*
X0428903Y0049328D01*
X0428365Y0047729D02*
X0432328Y0047729D01*
X0432329Y0046131D02*
X0427703Y0046131D01*
X0426260Y0044532D02*
X0432330Y0044532D01*
X0432331Y0042934D02*
X0423936Y0042934D01*
X0416670Y0042934D02*
X0059454Y0042934D01*
X0059741Y0043053D02*
X0062160Y0045472D01*
X0063470Y0048632D01*
X0063470Y0052053D01*
X0062160Y0055214D01*
X0059741Y0057633D01*
X0056581Y0058942D01*
X0053160Y0058942D01*
X0049999Y0057633D01*
X0047580Y0055214D01*
X0046271Y0052053D01*
X0046271Y0048632D01*
X0047580Y0045472D01*
X0049999Y0043053D01*
X0053160Y0041744D01*
X0056581Y0041744D01*
X0059741Y0043053D01*
X0061221Y0044532D02*
X0212439Y0044532D01*
X0211363Y0044978D02*
X0213945Y0043908D01*
X0216740Y0043908D01*
X0219322Y0044978D01*
X0221298Y0046954D01*
X0222368Y0049536D01*
X0222368Y0052331D01*
X0221298Y0054913D01*
X0219322Y0056889D01*
X0216740Y0057958D01*
X0213945Y0057958D01*
X0211363Y0056889D01*
X0209387Y0054913D01*
X0208318Y0052331D01*
X0208318Y0049536D01*
X0209387Y0046954D01*
X0211363Y0044978D01*
X0210211Y0046131D02*
X0062433Y0046131D01*
X0063095Y0047729D02*
X0209066Y0047729D01*
X0208404Y0049328D02*
X0063470Y0049328D01*
X0063470Y0050926D02*
X0208318Y0050926D01*
X0208398Y0052525D02*
X0063274Y0052525D01*
X0062612Y0054123D02*
X0209060Y0054123D01*
X0210196Y0055722D02*
X0061653Y0055722D01*
X0060054Y0057320D02*
X0212405Y0057320D01*
X0218281Y0057320D02*
X0219885Y0057320D01*
X0220489Y0055722D02*
X0221468Y0055722D01*
X0221625Y0054123D02*
X0229060Y0054123D01*
X0229387Y0054913D02*
X0228318Y0052331D01*
X0228318Y0049536D01*
X0229387Y0046954D01*
X0231363Y0044978D01*
X0233945Y0043908D01*
X0236740Y0043908D01*
X0239322Y0044978D01*
X0241298Y0046954D01*
X0242368Y0049536D01*
X0242368Y0052331D01*
X0241298Y0054913D01*
X0239322Y0056889D01*
X0236740Y0057958D01*
X0233945Y0057958D01*
X0231363Y0056889D01*
X0229387Y0054913D01*
X0229217Y0055722D02*
X0230196Y0055722D01*
X0230801Y0057320D02*
X0232405Y0057320D01*
X0231463Y0058919D02*
X0285728Y0058919D01*
X0285751Y0058941D02*
X0284579Y0057770D01*
X0284579Y0048113D01*
X0285751Y0046941D01*
X0295407Y0046941D01*
X0296579Y0048113D01*
X0296579Y0057770D01*
X0295407Y0058941D01*
X0285751Y0058941D01*
X0284579Y0057320D02*
X0238281Y0057320D01*
X0240489Y0055722D02*
X0284579Y0055722D01*
X0284579Y0054123D02*
X0241625Y0054123D01*
X0242287Y0052525D02*
X0284579Y0052525D01*
X0284579Y0050926D02*
X0242368Y0050926D01*
X0242281Y0049328D02*
X0284579Y0049328D01*
X0284963Y0047729D02*
X0241619Y0047729D01*
X0240475Y0046131D02*
X0412903Y0046131D01*
X0412241Y0047729D02*
X0339955Y0047729D01*
X0339450Y0047225D02*
X0341138Y0048913D01*
X0342051Y0051118D01*
X0342051Y0053505D01*
X0341138Y0055710D01*
X0339450Y0057398D01*
X0337245Y0058311D01*
X0334858Y0058311D01*
X0332653Y0057398D01*
X0330965Y0055710D01*
X0330051Y0053505D01*
X0330051Y0051118D01*
X0330965Y0048913D01*
X0332653Y0047225D01*
X0334858Y0046311D01*
X0337245Y0046311D01*
X0339450Y0047225D01*
X0341310Y0049328D02*
X0411704Y0049328D01*
X0411704Y0050926D02*
X0341972Y0050926D01*
X0342051Y0052525D02*
X0411736Y0052525D01*
X0412399Y0054123D02*
X0341795Y0054123D01*
X0341126Y0055722D02*
X0413127Y0055722D01*
X0414726Y0057320D02*
X0339528Y0057320D01*
X0332575Y0057320D02*
X0328091Y0057320D01*
X0328272Y0057140D02*
X0327100Y0058311D01*
X0317443Y0058311D01*
X0316272Y0057140D01*
X0316272Y0047483D01*
X0317443Y0046311D01*
X0327100Y0046311D01*
X0328272Y0047483D01*
X0328272Y0057140D01*
X0328272Y0055722D02*
X0330977Y0055722D01*
X0330308Y0054123D02*
X0328272Y0054123D01*
X0328272Y0052525D02*
X0330051Y0052525D01*
X0330131Y0050926D02*
X0328272Y0050926D01*
X0328272Y0049328D02*
X0330793Y0049328D01*
X0332148Y0047729D02*
X0328272Y0047729D01*
X0316272Y0047729D02*
X0307454Y0047729D01*
X0307757Y0047855D02*
X0309445Y0049542D01*
X0310359Y0051748D01*
X0310359Y0054135D01*
X0309445Y0056340D01*
X0307757Y0058028D01*
X0305552Y0058941D01*
X0303165Y0058941D01*
X0300960Y0058028D01*
X0299272Y0056340D01*
X0298359Y0054135D01*
X0298359Y0051748D01*
X0299272Y0049542D01*
X0300960Y0047855D01*
X0303165Y0046941D01*
X0305552Y0046941D01*
X0307757Y0047855D01*
X0309230Y0049328D02*
X0316272Y0049328D01*
X0316272Y0050926D02*
X0310018Y0050926D01*
X0310359Y0052525D02*
X0316272Y0052525D01*
X0316272Y0054123D02*
X0310359Y0054123D01*
X0309701Y0055722D02*
X0316272Y0055722D01*
X0316452Y0057320D02*
X0308465Y0057320D01*
X0305606Y0058919D02*
X0417586Y0058919D01*
X0432316Y0065313D02*
X0239657Y0065313D01*
X0241256Y0066911D02*
X0432315Y0066911D01*
X0432314Y0068510D02*
X0241943Y0068510D01*
X0242368Y0070108D02*
X0432313Y0070108D01*
X0432312Y0071707D02*
X0242368Y0071707D01*
X0241964Y0073305D02*
X0432311Y0073305D01*
X0432309Y0074904D02*
X0241302Y0074904D01*
X0239709Y0076502D02*
X0432308Y0076502D01*
X0427794Y0081298D02*
X0423836Y0081298D01*
X0423535Y0080997D02*
X0424846Y0082308D01*
X0425556Y0084022D01*
X0425556Y0085876D01*
X0424846Y0087590D01*
X0423535Y0088901D01*
X0421821Y0089611D01*
X0419967Y0089611D01*
X0418253Y0088901D01*
X0416942Y0087590D01*
X0416232Y0085876D01*
X0416232Y0084022D01*
X0416942Y0082308D01*
X0418253Y0080997D01*
X0419967Y0080287D01*
X0421821Y0080287D01*
X0423535Y0080997D01*
X0425090Y0082896D02*
X0426540Y0082896D01*
X0426074Y0084495D02*
X0425556Y0084495D01*
X0425466Y0086093D02*
X0426164Y0086093D01*
X0426886Y0087692D02*
X0424744Y0087692D01*
X0422596Y0089290D02*
X0429034Y0089290D01*
X0432299Y0090889D02*
X0406216Y0090889D01*
X0405777Y0089290D02*
X0419192Y0089290D01*
X0417043Y0087692D02*
X0406892Y0087692D01*
X0407509Y0086093D02*
X0416322Y0086093D01*
X0416232Y0084495D02*
X0407509Y0084495D01*
X0407178Y0082896D02*
X0416698Y0082896D01*
X0417952Y0081298D02*
X0406467Y0081298D01*
X0407074Y0092487D02*
X0432298Y0092487D01*
X0432297Y0094086D02*
X0407509Y0094086D01*
X0407509Y0095684D02*
X0432296Y0095684D01*
X0432294Y0097283D02*
X0406996Y0097283D01*
X0406029Y0098881D02*
X0432293Y0098881D01*
X0432292Y0100480D02*
X0403939Y0100480D01*
X0405197Y0102079D02*
X0432291Y0102079D01*
X0432290Y0103677D02*
X0405859Y0103677D01*
X0405871Y0105276D02*
X0432289Y0105276D01*
X0432288Y0106874D02*
X0405327Y0106874D01*
X0403964Y0108473D02*
X0432287Y0108473D01*
X0432286Y0110071D02*
X0405713Y0110071D01*
X0406865Y0111670D02*
X0432285Y0111670D01*
X0432284Y0113268D02*
X0407509Y0113268D01*
X0407509Y0114867D02*
X0432283Y0114867D01*
X0432282Y0116465D02*
X0407204Y0116465D01*
X0406531Y0118064D02*
X0432280Y0118064D01*
X0432279Y0119662D02*
X0431676Y0119662D01*
X0429797Y0119662D02*
X0421834Y0119662D01*
X0421821Y0119657D02*
X0423535Y0120367D01*
X0424846Y0121678D01*
X0425556Y0123392D01*
X0425556Y0125247D01*
X0424846Y0126960D01*
X0423535Y0128272D01*
X0421821Y0128981D01*
X0419967Y0128981D01*
X0418253Y0128272D01*
X0416942Y0126960D01*
X0416232Y0125247D01*
X0416232Y0123392D01*
X0416942Y0121678D01*
X0418253Y0120367D01*
X0419967Y0119657D01*
X0421821Y0119657D01*
X0419954Y0119662D02*
X0405461Y0119662D01*
X0406761Y0121261D02*
X0417359Y0121261D01*
X0416452Y0122859D02*
X0407423Y0122859D01*
X0407509Y0124458D02*
X0416232Y0124458D01*
X0416567Y0126056D02*
X0407308Y0126056D01*
X0406646Y0127655D02*
X0417636Y0127655D01*
X0424152Y0127655D02*
X0427479Y0127655D01*
X0426410Y0126056D02*
X0425221Y0126056D01*
X0425556Y0124458D02*
X0426074Y0124458D01*
X0426295Y0122859D02*
X0425336Y0122859D01*
X0424429Y0121261D02*
X0427202Y0121261D01*
X0432273Y0129253D02*
X0405184Y0129253D01*
X0397233Y0129253D02*
X0043417Y0129253D01*
X0043413Y0127655D02*
X0395771Y0127655D01*
X0395109Y0126056D02*
X0043410Y0126056D01*
X0043407Y0124458D02*
X0073208Y0124458D01*
X0073216Y0124466D02*
X0071613Y0122863D01*
X0070745Y0120768D01*
X0070745Y0118500D01*
X0071613Y0116405D01*
X0073216Y0114802D01*
X0073621Y0114634D01*
X0073216Y0114466D01*
X0071613Y0112863D01*
X0070745Y0110768D01*
X0070745Y0108500D01*
X0071613Y0106405D01*
X0073216Y0104802D01*
X0075311Y0103934D01*
X0077579Y0103934D01*
X0079674Y0104802D01*
X0081277Y0106405D01*
X0082145Y0108500D01*
X0082145Y0110768D01*
X0081277Y0112863D01*
X0079674Y0114466D01*
X0079269Y0114634D01*
X0079674Y0114802D01*
X0081277Y0116405D01*
X0082145Y0118500D01*
X0082145Y0120768D01*
X0081277Y0122863D01*
X0079674Y0124466D01*
X0077579Y0125334D01*
X0075311Y0125334D01*
X0073216Y0124466D01*
X0071611Y0122859D02*
X0043404Y0122859D01*
X0043401Y0121261D02*
X0070949Y0121261D01*
X0070745Y0119662D02*
X0043397Y0119662D01*
X0043394Y0118064D02*
X0070926Y0118064D01*
X0071588Y0116465D02*
X0043391Y0116465D01*
X0043388Y0114867D02*
X0073152Y0114867D01*
X0072018Y0113268D02*
X0043384Y0113268D01*
X0043381Y0111670D02*
X0071119Y0111670D01*
X0070745Y0110071D02*
X0043378Y0110071D01*
X0043375Y0108473D02*
X0070757Y0108473D01*
X0071419Y0106874D02*
X0043372Y0106874D01*
X0043368Y0105276D02*
X0072743Y0105276D01*
X0080148Y0105276D02*
X0090105Y0105276D01*
X0090657Y0104723D02*
X0092752Y0103855D01*
X0095020Y0103855D01*
X0097115Y0104723D01*
X0098718Y0106327D01*
X0099586Y0108422D01*
X0099586Y0110689D01*
X0098718Y0112784D01*
X0097115Y0114388D01*
X0096710Y0114555D01*
X0097115Y0114723D01*
X0098718Y0116327D01*
X0099586Y0118422D01*
X0099586Y0120689D01*
X0098718Y0122784D01*
X0097115Y0124388D01*
X0095020Y0125255D01*
X0092752Y0125255D01*
X0090657Y0124388D01*
X0089054Y0122784D01*
X0088186Y0120689D01*
X0088186Y0118422D01*
X0089054Y0116327D01*
X0090657Y0114723D01*
X0091062Y0114555D01*
X0090657Y0114388D01*
X0089054Y0112784D01*
X0088186Y0110689D01*
X0088186Y0108422D01*
X0089054Y0106327D01*
X0090657Y0104723D01*
X0088827Y0106874D02*
X0081472Y0106874D01*
X0082134Y0108473D02*
X0088186Y0108473D01*
X0088186Y0110071D02*
X0082145Y0110071D01*
X0081772Y0111670D02*
X0088592Y0111670D01*
X0089538Y0113268D02*
X0080872Y0113268D01*
X0079739Y0114867D02*
X0090514Y0114867D01*
X0088996Y0116465D02*
X0081302Y0116465D01*
X0081964Y0118064D02*
X0088334Y0118064D01*
X0088186Y0119662D02*
X0082145Y0119662D01*
X0081941Y0121261D02*
X0088423Y0121261D01*
X0089129Y0122859D02*
X0081279Y0122859D01*
X0079683Y0124458D02*
X0090826Y0124458D01*
X0096946Y0124458D02*
X0108960Y0124458D01*
X0108886Y0124427D02*
X0107282Y0122824D01*
X0106414Y0120729D01*
X0106414Y0118461D01*
X0107282Y0116366D01*
X0108886Y0114763D01*
X0109291Y0114595D01*
X0108886Y0114427D01*
X0107282Y0112824D01*
X0106414Y0110729D01*
X0106414Y0108461D01*
X0107282Y0106366D01*
X0108886Y0104763D01*
X0110981Y0103895D01*
X0113248Y0103895D01*
X0115343Y0104763D01*
X0116947Y0106366D01*
X0117814Y0108461D01*
X0117814Y0110729D01*
X0116947Y0112824D01*
X0115343Y0114427D01*
X0114938Y0114595D01*
X0115343Y0114763D01*
X0116947Y0116366D01*
X0117814Y0118461D01*
X0117814Y0120729D01*
X0116947Y0122824D01*
X0115343Y0124427D01*
X0113248Y0125295D01*
X0110981Y0125295D01*
X0108886Y0124427D01*
X0107318Y0122859D02*
X0098643Y0122859D01*
X0099349Y0121261D02*
X0106635Y0121261D01*
X0106414Y0119662D02*
X0099586Y0119662D01*
X0099438Y0118064D02*
X0106579Y0118064D01*
X0107241Y0116465D02*
X0098776Y0116465D01*
X0097258Y0114867D02*
X0108782Y0114867D01*
X0107727Y0113268D02*
X0098234Y0113268D01*
X0099180Y0111670D02*
X0106804Y0111670D01*
X0106414Y0110071D02*
X0099586Y0110071D01*
X0099586Y0108473D02*
X0106414Y0108473D01*
X0107072Y0106874D02*
X0098945Y0106874D01*
X0097667Y0105276D02*
X0108373Y0105276D01*
X0115856Y0105276D02*
X0126089Y0105276D01*
X0124811Y0106874D02*
X0117157Y0106874D01*
X0117814Y0108473D02*
X0124170Y0108473D01*
X0124170Y0110071D02*
X0117814Y0110071D01*
X0117425Y0111670D02*
X0124576Y0111670D01*
X0125522Y0113268D02*
X0116502Y0113268D01*
X0115447Y0114867D02*
X0126498Y0114867D01*
X0124981Y0116465D02*
X0116988Y0116465D01*
X0117650Y0118064D02*
X0124319Y0118064D01*
X0124170Y0119662D02*
X0117814Y0119662D01*
X0117594Y0121261D02*
X0124407Y0121261D01*
X0125113Y0122859D02*
X0116911Y0122859D01*
X0115269Y0124458D02*
X0126811Y0124458D01*
X0132930Y0124458D02*
X0394909Y0124458D01*
X0394995Y0122859D02*
X0134628Y0122859D01*
X0135334Y0121261D02*
X0395657Y0121261D01*
X0396956Y0119662D02*
X0135570Y0119662D01*
X0133243Y0114867D02*
X0347388Y0114867D01*
X0347369Y0113268D02*
X0134219Y0113268D01*
X0135164Y0111670D02*
X0348134Y0111670D01*
X0303111Y0058919D02*
X0295430Y0058919D01*
X0296579Y0057320D02*
X0300252Y0057320D01*
X0299016Y0055722D02*
X0296579Y0055722D01*
X0296579Y0054123D02*
X0298359Y0054123D01*
X0298359Y0052525D02*
X0296579Y0052525D01*
X0296579Y0050926D02*
X0298699Y0050926D01*
X0299487Y0049328D02*
X0296579Y0049328D01*
X0296195Y0047729D02*
X0301263Y0047729D01*
X0238246Y0044532D02*
X0414347Y0044532D01*
X0432332Y0041335D02*
X0043240Y0041335D01*
X0043243Y0042934D02*
X0050287Y0042934D01*
X0048520Y0044532D02*
X0043246Y0044532D01*
X0043249Y0046131D02*
X0047307Y0046131D01*
X0046645Y0047729D02*
X0043253Y0047729D01*
X0043256Y0049328D02*
X0046271Y0049328D01*
X0046271Y0050926D02*
X0043259Y0050926D01*
X0043262Y0052525D02*
X0046466Y0052525D01*
X0047129Y0054123D02*
X0043265Y0054123D01*
X0043269Y0055722D02*
X0048088Y0055722D01*
X0049687Y0057320D02*
X0043272Y0057320D01*
X0043275Y0058919D02*
X0053104Y0058919D01*
X0056637Y0058919D02*
X0219223Y0058919D01*
X0218918Y0060517D02*
X0043278Y0060517D01*
X0043282Y0062116D02*
X0218918Y0062116D01*
X0222287Y0052525D02*
X0228398Y0052525D01*
X0228318Y0050926D02*
X0222368Y0050926D01*
X0222281Y0049328D02*
X0228404Y0049328D01*
X0229066Y0047729D02*
X0221619Y0047729D01*
X0220475Y0046131D02*
X0230211Y0046131D01*
X0232439Y0044532D02*
X0218246Y0044532D01*
X0043420Y0130852D02*
X0432272Y0130852D01*
X0432271Y0132450D02*
X0043423Y0132450D01*
X0043426Y0134049D02*
X0432270Y0134049D01*
X0432269Y0135647D02*
X0043429Y0135647D01*
X0043433Y0137246D02*
X0432268Y0137246D01*
X0432267Y0138844D02*
X0043436Y0138844D01*
X0043439Y0140443D02*
X0432265Y0140443D01*
X0432264Y0142041D02*
X0043442Y0142041D01*
X0422476Y0188398D02*
X0428367Y0188398D01*
X0426386Y0189997D02*
X0424457Y0189997D01*
X0425119Y0191595D02*
X0425724Y0191595D01*
X0425681Y0193194D02*
X0425162Y0193194D01*
X0424649Y0194792D02*
X0426194Y0194792D01*
X0427514Y0196391D02*
X0423329Y0196391D01*
D17*
X0385422Y0215303D03*
X0375579Y0234988D03*
X0405107Y0254673D03*
X0424792Y0234988D03*
X0365815Y0191799D03*
X0354122Y0191878D03*
X0385422Y0175933D03*
X0365894Y0157784D03*
X0366012Y0148492D03*
X0337114Y0164949D03*
X0316918Y0165776D03*
X0311760Y0165697D03*
X0316563Y0183059D03*
X0275185Y0183807D03*
X0275185Y0173965D03*
X0275185Y0164122D03*
X0253532Y0160185D03*
X0214162Y0179870D03*
X0218099Y0188729D03*
X0192390Y0191288D03*
X0165225Y0184673D03*
X0132311Y0199634D03*
X0132469Y0207429D03*
X0149201Y0207941D03*
X0173217Y0214083D03*
X0187744Y0213335D03*
X0200382Y0227114D03*
X0208256Y0221209D03*
X0214162Y0227114D03*
X0222036Y0221209D03*
X0228689Y0210422D03*
X0240343Y0214240D03*
X0239752Y0231051D03*
X0235815Y0240894D03*
X0222036Y0244831D03*
X0208256Y0244831D03*
X0194477Y0244831D03*
X0192508Y0264516D03*
X0214162Y0264516D03*
X0233847Y0264516D03*
X0253532Y0264516D03*
X0255500Y0240894D03*
X0273689Y0213610D03*
X0305815Y0211839D03*
X0245658Y0132626D03*
X0257469Y0126721D03*
X0277154Y0126721D03*
X0277154Y0109004D03*
X0257469Y0097193D03*
X0241721Y0085382D03*
X0277154Y0067666D03*
X0281603Y0086524D03*
X0332351Y0077233D03*
X0348020Y0093256D03*
X0351248Y0114044D03*
X0372626Y0113965D03*
X0385422Y0126721D03*
X0385422Y0087351D03*
X0198414Y0093256D03*
X0186603Y0061760D03*
X0129516Y0067666D03*
X0080303Y0057823D03*
X0060618Y0097193D03*
X0149595Y0157233D03*
X0173571Y0157233D03*
X0125579Y0160185D03*
X0125579Y0171996D03*
X0125579Y0181839D03*
X0107862Y0183807D03*
X0107862Y0171996D03*
X0107862Y0160185D03*
X0084240Y0160185D03*
X0084240Y0171996D03*
X0084240Y0183807D03*
X0084240Y0197587D03*
X0060618Y0183807D03*
X0092114Y0217272D03*
X0082272Y0225146D03*
X0101957Y0227114D03*
X0127548Y0227114D03*
X0153138Y0233020D03*
X0161012Y0225146D03*
X0159044Y0242862D03*
X0127548Y0246799D03*
X0101957Y0246799D03*
X0078335Y0246799D03*
X0060618Y0234988D03*
X0078335Y0264516D03*
X0101957Y0264516D03*
X0127548Y0264516D03*
X0161012Y0264516D03*
X0198414Y0126721D03*
D18*
X0171996Y0191445D02*
X0171996Y0201563D01*
X0171994Y0201639D01*
X0171988Y0201714D01*
X0171979Y0201790D01*
X0171965Y0201864D01*
X0171948Y0201938D01*
X0171927Y0202011D01*
X0171903Y0202083D01*
X0171875Y0202153D01*
X0171843Y0202222D01*
X0171808Y0202289D01*
X0171770Y0202354D01*
X0171728Y0202418D01*
X0171683Y0202479D01*
X0171635Y0202537D01*
X0171584Y0202594D01*
X0171531Y0202647D01*
X0171474Y0202698D01*
X0171416Y0202746D01*
X0171355Y0202791D01*
X0171291Y0202833D01*
X0171226Y0202871D01*
X0171159Y0202906D01*
X0171090Y0202938D01*
X0171020Y0202966D01*
X0170948Y0202990D01*
X0170875Y0203011D01*
X0170801Y0203028D01*
X0170727Y0203042D01*
X0170651Y0203051D01*
X0170576Y0203057D01*
X0170500Y0203059D01*
X0166483Y0203059D01*
X0154083Y0203059D01*
X0153946Y0203061D01*
X0153809Y0203067D01*
X0153673Y0203076D01*
X0153536Y0203090D01*
X0153401Y0203107D01*
X0153265Y0203128D01*
X0153131Y0203153D01*
X0152997Y0203181D01*
X0152864Y0203214D01*
X0152731Y0203250D01*
X0152600Y0203290D01*
X0152471Y0203333D01*
X0152342Y0203380D01*
X0152215Y0203431D01*
X0152089Y0203485D01*
X0151965Y0203542D01*
X0151842Y0203604D01*
X0151721Y0203668D01*
X0151603Y0203736D01*
X0151486Y0203807D01*
X0151371Y0203882D01*
X0151258Y0203959D01*
X0151147Y0204040D01*
X0151039Y0204124D01*
X0150933Y0204211D01*
X0150830Y0204301D01*
X0150729Y0204393D01*
X0150631Y0204489D01*
X0150535Y0204587D01*
X0150443Y0204688D01*
X0150353Y0204791D01*
X0150266Y0204897D01*
X0150182Y0205005D01*
X0150101Y0205116D01*
X0150024Y0205229D01*
X0149949Y0205344D01*
X0149878Y0205461D01*
X0149810Y0205579D01*
X0149746Y0205700D01*
X0149684Y0205823D01*
X0149627Y0205947D01*
X0149573Y0206073D01*
X0149522Y0206200D01*
X0149475Y0206329D01*
X0149432Y0206458D01*
X0149392Y0206589D01*
X0149356Y0206722D01*
X0149323Y0206855D01*
X0149295Y0206989D01*
X0149270Y0207123D01*
X0149249Y0207259D01*
X0149232Y0207394D01*
X0149218Y0207531D01*
X0149209Y0207667D01*
X0149203Y0207804D01*
X0149201Y0207941D01*
X0166483Y0203059D02*
X0166483Y0203059D01*
X0166483Y0203059D01*
X0166483Y0203059D01*
X0170500Y0203059D02*
X0178177Y0203059D01*
X0178280Y0203061D01*
X0178382Y0203067D01*
X0178484Y0203077D01*
X0178586Y0203090D01*
X0178687Y0203108D01*
X0178787Y0203129D01*
X0178886Y0203155D01*
X0178985Y0203184D01*
X0179082Y0203217D01*
X0179178Y0203253D01*
X0179272Y0203293D01*
X0179365Y0203337D01*
X0179456Y0203384D01*
X0179545Y0203435D01*
X0179632Y0203489D01*
X0179717Y0203546D01*
X0179800Y0203607D01*
X0179880Y0203671D01*
X0179958Y0203737D01*
X0180033Y0203807D01*
X0180106Y0203880D01*
X0180176Y0203955D01*
X0180242Y0204033D01*
X0180306Y0204113D01*
X0180367Y0204196D01*
X0180424Y0204281D01*
X0180478Y0204368D01*
X0180529Y0204457D01*
X0180576Y0204548D01*
X0180620Y0204641D01*
X0180660Y0204735D01*
X0180696Y0204831D01*
X0180729Y0204928D01*
X0180758Y0205027D01*
X0180784Y0205126D01*
X0180805Y0205226D01*
X0180823Y0205327D01*
X0180836Y0205429D01*
X0180846Y0205531D01*
X0180852Y0205633D01*
X0180854Y0205736D01*
X0180855Y0205736D02*
X0180855Y0212587D01*
X0180854Y0212587D02*
X0180856Y0212638D01*
X0180861Y0212688D01*
X0180870Y0212738D01*
X0180883Y0212787D01*
X0180899Y0212835D01*
X0180918Y0212882D01*
X0180941Y0212927D01*
X0180967Y0212970D01*
X0180995Y0213012D01*
X0181027Y0213051D01*
X0181062Y0213088D01*
X0181099Y0213123D01*
X0181138Y0213155D01*
X0181180Y0213183D01*
X0181223Y0213209D01*
X0181268Y0213232D01*
X0181315Y0213251D01*
X0181363Y0213267D01*
X0181412Y0213280D01*
X0181462Y0213289D01*
X0181512Y0213294D01*
X0181563Y0213296D01*
X0182272Y0213296D01*
X0182273Y0213306D01*
X0182277Y0213316D01*
X0182283Y0213324D01*
X0182292Y0213330D01*
X0182301Y0213334D01*
X0182311Y0213335D01*
X0187744Y0213335D01*
X0225776Y0213335D01*
X0225882Y0213333D01*
X0225989Y0213327D01*
X0226095Y0213318D01*
X0226200Y0213304D01*
X0226305Y0213287D01*
X0226409Y0213265D01*
X0226513Y0213240D01*
X0226615Y0213211D01*
X0226717Y0213179D01*
X0226817Y0213143D01*
X0226915Y0213103D01*
X0227012Y0213060D01*
X0227108Y0213013D01*
X0227202Y0212962D01*
X0227293Y0212909D01*
X0227383Y0212851D01*
X0227471Y0212791D01*
X0227556Y0212728D01*
X0227639Y0212661D01*
X0227720Y0212592D01*
X0227798Y0212519D01*
X0227873Y0212444D01*
X0227946Y0212366D01*
X0228015Y0212285D01*
X0228082Y0212202D01*
X0228145Y0212117D01*
X0228205Y0212029D01*
X0228263Y0211939D01*
X0228316Y0211848D01*
X0228367Y0211754D01*
X0228414Y0211658D01*
X0228457Y0211561D01*
X0228497Y0211463D01*
X0228533Y0211363D01*
X0228565Y0211261D01*
X0228594Y0211159D01*
X0228619Y0211055D01*
X0228641Y0210951D01*
X0228658Y0210846D01*
X0228672Y0210741D01*
X0228681Y0210635D01*
X0228687Y0210528D01*
X0228689Y0210422D01*
X0240540Y0214044D02*
X0256406Y0214044D01*
X0256483Y0214042D01*
X0256560Y0214036D01*
X0256637Y0214027D01*
X0256713Y0214014D01*
X0256789Y0213997D01*
X0256863Y0213976D01*
X0256937Y0213952D01*
X0257009Y0213924D01*
X0257079Y0213893D01*
X0257148Y0213858D01*
X0257216Y0213820D01*
X0257281Y0213779D01*
X0257344Y0213734D01*
X0257405Y0213686D01*
X0257464Y0213636D01*
X0257520Y0213583D01*
X0257573Y0213527D01*
X0257623Y0213468D01*
X0257671Y0213407D01*
X0257716Y0213344D01*
X0257757Y0213279D01*
X0257795Y0213211D01*
X0257830Y0213142D01*
X0257861Y0213072D01*
X0257889Y0213000D01*
X0257913Y0212926D01*
X0257934Y0212852D01*
X0257951Y0212776D01*
X0257964Y0212700D01*
X0257973Y0212623D01*
X0257979Y0212546D01*
X0257981Y0212469D01*
X0257981Y0207588D01*
X0257991Y0207587D01*
X0258001Y0207583D01*
X0258009Y0207577D01*
X0258015Y0207569D01*
X0258019Y0207559D01*
X0258020Y0207549D01*
X0258020Y0203492D01*
X0258022Y0203472D01*
X0258027Y0203452D01*
X0258036Y0203433D01*
X0258048Y0203416D01*
X0258062Y0203402D01*
X0258079Y0203390D01*
X0258098Y0203381D01*
X0258118Y0203376D01*
X0258138Y0203374D01*
X0264437Y0203374D01*
X0264661Y0203377D01*
X0264884Y0203385D01*
X0265107Y0203398D01*
X0265330Y0203417D01*
X0265552Y0203441D01*
X0265774Y0203471D01*
X0265995Y0203506D01*
X0266215Y0203546D01*
X0266433Y0203592D01*
X0266651Y0203643D01*
X0266868Y0203699D01*
X0267083Y0203760D01*
X0267296Y0203827D01*
X0267508Y0203898D01*
X0267718Y0203975D01*
X0267926Y0204057D01*
X0268132Y0204144D01*
X0268336Y0204236D01*
X0268537Y0204332D01*
X0268737Y0204434D01*
X0268933Y0204540D01*
X0269127Y0204651D01*
X0269319Y0204767D01*
X0269507Y0204887D01*
X0269693Y0205012D01*
X0269875Y0205141D01*
X0270054Y0205275D01*
X0270230Y0205412D01*
X0270403Y0205555D01*
X0270572Y0205701D01*
X0270738Y0205851D01*
X0270900Y0206005D01*
X0271058Y0206163D01*
X0271212Y0206325D01*
X0271362Y0206491D01*
X0271508Y0206660D01*
X0271651Y0206833D01*
X0271788Y0207009D01*
X0271922Y0207188D01*
X0272051Y0207370D01*
X0272176Y0207556D01*
X0272296Y0207744D01*
X0272412Y0207936D01*
X0272523Y0208130D01*
X0272629Y0208326D01*
X0272731Y0208526D01*
X0272827Y0208727D01*
X0272919Y0208931D01*
X0273006Y0209137D01*
X0273088Y0209345D01*
X0273165Y0209555D01*
X0273236Y0209767D01*
X0273303Y0209980D01*
X0273364Y0210195D01*
X0273420Y0210412D01*
X0273471Y0210630D01*
X0273517Y0210848D01*
X0273557Y0211068D01*
X0273592Y0211289D01*
X0273622Y0211511D01*
X0273646Y0211733D01*
X0273665Y0211956D01*
X0273678Y0212179D01*
X0273686Y0212402D01*
X0273689Y0212626D01*
X0273689Y0213610D01*
X0240540Y0214043D02*
X0240514Y0214045D01*
X0240489Y0214050D01*
X0240465Y0214058D01*
X0240442Y0214069D01*
X0240420Y0214084D01*
X0240401Y0214101D01*
X0240384Y0214120D01*
X0240369Y0214142D01*
X0240358Y0214165D01*
X0240350Y0214189D01*
X0240345Y0214214D01*
X0240343Y0214240D01*
X0311760Y0178256D02*
X0311760Y0165697D01*
X0316918Y0165776D02*
X0336288Y0165776D01*
X0337114Y0164949D01*
X0316563Y0183059D02*
X0316426Y0183057D01*
X0316289Y0183051D01*
X0316152Y0183041D01*
X0316015Y0183028D01*
X0315879Y0183010D01*
X0315744Y0182989D01*
X0315609Y0182963D01*
X0315475Y0182934D01*
X0315342Y0182901D01*
X0315210Y0182864D01*
X0315079Y0182824D01*
X0314949Y0182780D01*
X0314820Y0182732D01*
X0314693Y0182680D01*
X0314568Y0182625D01*
X0314444Y0182566D01*
X0314322Y0182504D01*
X0314201Y0182438D01*
X0314083Y0182369D01*
X0313966Y0182297D01*
X0313852Y0182221D01*
X0313740Y0182142D01*
X0313630Y0182060D01*
X0313523Y0181974D01*
X0313418Y0181886D01*
X0313315Y0181795D01*
X0313216Y0181700D01*
X0313119Y0181603D01*
X0313024Y0181504D01*
X0312933Y0181401D01*
X0312845Y0181296D01*
X0312759Y0181189D01*
X0312677Y0181079D01*
X0312598Y0180967D01*
X0312522Y0180853D01*
X0312450Y0180736D01*
X0312381Y0180618D01*
X0312315Y0180497D01*
X0312253Y0180375D01*
X0312194Y0180251D01*
X0312139Y0180126D01*
X0312087Y0179999D01*
X0312039Y0179870D01*
X0311995Y0179740D01*
X0311955Y0179609D01*
X0311918Y0179477D01*
X0311885Y0179344D01*
X0311856Y0179210D01*
X0311830Y0179075D01*
X0311809Y0178940D01*
X0311791Y0178804D01*
X0311778Y0178667D01*
X0311768Y0178530D01*
X0311762Y0178393D01*
X0311760Y0178256D01*
X0354201Y0191799D02*
X0365815Y0191799D01*
X0354201Y0191799D02*
X0354186Y0191801D01*
X0354171Y0191805D01*
X0354157Y0191812D01*
X0354145Y0191822D01*
X0354135Y0191834D01*
X0354128Y0191848D01*
X0354124Y0191863D01*
X0354122Y0191878D01*
X0365894Y0157784D02*
X0365914Y0157782D01*
X0365934Y0157777D01*
X0365953Y0157768D01*
X0365970Y0157756D01*
X0365984Y0157742D01*
X0365996Y0157725D01*
X0366005Y0157706D01*
X0366010Y0157686D01*
X0366012Y0157666D01*
X0366012Y0148492D01*
X0372548Y0114044D02*
X0351248Y0114044D01*
X0372548Y0114044D02*
X0372563Y0114042D01*
X0372578Y0114038D01*
X0372592Y0114031D01*
X0372604Y0114021D01*
X0372614Y0114009D01*
X0372621Y0113995D01*
X0372625Y0113980D01*
X0372627Y0113965D01*
X0171997Y0191445D02*
X0171995Y0191281D01*
X0171989Y0191118D01*
X0171979Y0190954D01*
X0171965Y0190791D01*
X0171948Y0190629D01*
X0171926Y0190467D01*
X0171900Y0190305D01*
X0171871Y0190144D01*
X0171837Y0189984D01*
X0171800Y0189824D01*
X0171759Y0189666D01*
X0171714Y0189509D01*
X0171666Y0189352D01*
X0171613Y0189197D01*
X0171557Y0189044D01*
X0171497Y0188891D01*
X0171434Y0188741D01*
X0171366Y0188591D01*
X0171296Y0188444D01*
X0171221Y0188298D01*
X0171144Y0188154D01*
X0171062Y0188012D01*
X0170978Y0187872D01*
X0170890Y0187734D01*
X0170798Y0187598D01*
X0170704Y0187465D01*
X0170606Y0187333D01*
X0170505Y0187204D01*
X0170401Y0187078D01*
X0170294Y0186954D01*
X0170184Y0186833D01*
X0170071Y0186715D01*
X0169955Y0186599D01*
X0169837Y0186486D01*
X0169716Y0186376D01*
X0169592Y0186269D01*
X0169466Y0186165D01*
X0169337Y0186064D01*
X0169205Y0185966D01*
X0169072Y0185872D01*
X0168936Y0185780D01*
X0168798Y0185692D01*
X0168658Y0185608D01*
X0168516Y0185526D01*
X0168372Y0185449D01*
X0168226Y0185374D01*
X0168079Y0185304D01*
X0167929Y0185236D01*
X0167779Y0185173D01*
X0167626Y0185113D01*
X0167473Y0185057D01*
X0167318Y0185004D01*
X0167161Y0184956D01*
X0167004Y0184911D01*
X0166846Y0184870D01*
X0166686Y0184833D01*
X0166526Y0184799D01*
X0166365Y0184770D01*
X0166203Y0184744D01*
X0166041Y0184722D01*
X0165879Y0184705D01*
X0165716Y0184691D01*
X0165552Y0184681D01*
X0165389Y0184675D01*
X0165225Y0184673D01*
M02*
